<svg width="60" height="60" viewBox="0 0 60 60" fill="none" xmlns="http://www.w3.org/2000/svg">
<path d="M11.0662 51.0019L6.85498 3.75H53.145L48.9281 50.9944L29.9719 56.25L11.0662 51.0019Z" fill="#1572B6"/>
<path d="M30 52.2338L45.3188 47.9869L48.9225 7.61438H30V52.2338Z" fill="#33A9DC"/>
<path d="M30 24.7332H37.6688L38.1975 18.7988H30V13.0032H44.5312L44.3925 14.5575L42.9694 30.5288H30V24.7332Z" fill="white"/>
<path d="M30.0358 39.7838L30.0096 39.7913L23.5558 38.0475L23.1433 33.4257H17.3252L18.1371 42.525L30.0077 45.8213L30.0358 45.8138V39.7838Z" fill="#EBEBEB"/>
<path d="M37.1758 30.2831L36.4783 38.0437L30.0151 39.7875V45.8175L41.8951 42.525L41.9833 41.5462L42.9901 30.2831H37.1758Z" fill="white"/>
<path d="M30.0206 13.0032V18.7988H16.0218L15.9056 17.4957L15.6412 14.5575L15.5024 13.0032H30.0206ZM29.9999 24.7332V30.5288H23.6268L23.5106 29.2257L23.2481 26.2875L23.1093 24.7332H29.9999Z" fill="#EBEBEB"/>
</svg>
