<svg width="60" height="60" viewBox="0 0 60 60" fill="none" xmlns="http://www.w3.org/2000/svg">
<path d="M29.8915 45.1781C27.6717 45.1876 25.4582 44.9404 23.2952 44.4412C22.6523 44.2962 22.0216 44.1012 21.409 43.8581L22.9334 46.4625L23.5296 54.6C23.5296 55.5131 26.4284 56.2519 30.0021 56.2519C33.5759 56.2519 36.4746 55.5131 36.4746 54.6L36.9471 46.3744L38.389 43.8506C37.7713 44.0976 37.1349 44.2951 36.4859 44.4412C34.3235 44.9402 32.1107 45.1875 29.8915 45.1781ZM38.4377 18.6994C35.639 19.0474 32.8204 19.2109 30.0002 19.1888C27.18 19.2109 24.3615 19.0474 21.5627 18.6994C20.6738 18.5916 19.7956 18.4084 18.9377 18.1519C18.7143 18.0826 18.4978 17.9928 18.2909 17.8838L19.6877 30.75C19.7527 30.5287 19.8252 30.3075 19.9052 30.0862C20.0673 29.634 20.2551 29.1914 20.4677 28.7606C20.678 28.3387 20.9134 27.9299 21.1727 27.5363C21.4174 27.1639 21.6881 26.8092 21.9827 26.475C22.2497 26.1699 22.5447 25.8905 22.864 25.6406C23.144 25.4208 23.4508 25.2374 23.7771 25.095C24.0656 24.9712 24.3763 24.9075 24.6902 24.9075C25.046 24.9097 25.3946 25.0082 25.699 25.1925C26.0687 25.427 26.3803 25.7424 26.6102 26.115C26.6718 26.2012 26.714 26.2997 26.734 26.4037C26.7508 26.4947 26.7596 26.5869 26.7602 26.6794C26.7699 26.8522 26.7181 27.0229 26.614 27.1613C26.5737 27.2154 26.5214 27.2595 26.4613 27.2901C26.4011 27.3207 26.3346 27.3369 26.2671 27.3375C26.1997 27.3342 26.134 27.3156 26.0749 27.2831C26.0157 27.2506 25.9648 27.2051 25.9259 27.15C25.792 26.9765 25.6741 26.7914 25.5734 26.5969C25.4778 26.4106 25.3397 26.2493 25.1702 26.1263C25.0291 26.0306 24.8625 25.9797 24.6921 25.98C24.3785 25.9967 24.0783 26.113 23.8352 26.3119C23.4987 26.565 23.1956 26.8599 22.9334 27.1894C22.6154 27.5825 22.3289 28 22.0765 28.4381C21.8058 28.9021 21.5641 29.3824 21.3527 29.8763C21.1499 30.3468 20.9825 30.8319 20.8521 31.3275C20.7358 31.746 20.6728 32.1776 20.6646 32.6119C20.6651 32.7423 20.6738 32.8726 20.6909 33.0019C20.7057 33.1272 20.7385 33.2497 20.7884 33.3656C20.8297 33.468 20.8939 33.5597 20.9759 33.6337C21.0633 33.7056 21.174 33.743 21.2871 33.7387C21.4569 33.7309 21.6222 33.682 21.769 33.5962C21.9678 33.4891 22.1561 33.3635 22.3315 33.2213C22.5348 33.0578 22.7289 32.8832 22.9127 32.6981C23.1077 32.5044 23.289 32.3075 23.4565 32.1075C23.624 31.9075 23.7727 31.7163 23.9027 31.5338C24.0133 31.3827 24.1111 31.2228 24.1952 31.0556L24.7277 29.4619C24.772 29.3136 24.8611 29.1826 24.9827 29.0869C25.0769 29.0178 25.1903 28.9798 25.3071 28.9781C25.3613 28.9782 25.4151 28.9871 25.4665 29.0044C25.522 29.0228 25.5728 29.0534 25.6149 29.0939C25.6571 29.1345 25.6897 29.184 25.7102 29.2388C25.7365 29.3069 25.7492 29.3795 25.7477 29.4525C25.7486 29.6577 25.7292 29.8624 25.6896 30.0638C25.6521 30.254 25.6033 30.4418 25.5434 30.6262C25.4846 30.8075 25.419 30.9894 25.3465 31.1719C25.274 31.3544 25.2034 31.5456 25.1346 31.7456C25.1009 31.8143 25.0733 31.8858 25.0521 31.9594L24.9059 32.4112C24.8484 32.5875 24.7859 32.79 24.7184 33.0188L24.5121 33.7031C24.4409 33.9356 24.3734 34.1637 24.3096 34.3875C24.2459 34.6112 24.1877 34.8137 24.1352 34.995L24.0059 35.4488C23.9721 35.5706 23.9496 35.6362 23.9421 35.6662C23.9188 35.7489 23.8881 35.8292 23.8502 35.9062C23.8087 35.9944 23.7591 36.0785 23.7021 36.1575C23.649 36.2288 23.5859 36.2919 23.5146 36.345C23.4547 36.394 23.3801 36.4218 23.3027 36.4238C23.2516 36.4281 23.2003 36.4191 23.1536 36.3978C23.107 36.3764 23.0666 36.3434 23.0365 36.3019C22.9689 36.1627 22.9403 36.0078 22.954 35.8538V35.7581C22.9522 35.7244 22.9522 35.6906 22.954 35.6569C22.9783 35.5183 23.0147 35.3822 23.0627 35.25C23.1165 35.0512 23.179 34.8263 23.2502 34.575C23.3215 34.3238 23.4015 34.0638 23.4902 33.795L23.7227 33.0731C23.5202 33.2994 23.3009 33.5244 23.0646 33.7481C22.8358 33.9653 22.5927 34.167 22.3371 34.3519C22.1024 34.5224 21.8512 34.6687 21.5871 34.7888C21.3593 34.8959 21.1113 34.9535 20.8596 34.9575C20.6177 34.9641 20.3787 34.903 20.1696 34.7812C20.134 34.7606 20.1021 34.7363 20.0702 34.7119L20.8484 42.8719C21.0509 43.38 24.8646 44.6269 29.8952 44.6269C34.9259 44.6269 38.7434 43.3781 38.9421 42.87L40.0671 33.1688L39.799 33.4163C39.5097 33.6877 39.2068 33.9443 38.8915 34.185C38.6347 34.3837 38.3553 34.5511 38.059 34.6837C37.7843 34.802 37.4881 34.8621 37.189 34.86C36.9498 34.8759 36.7124 34.8097 36.5159 34.6725C36.4379 34.6105 36.3757 34.531 36.3343 34.4404C36.2929 34.3498 36.2735 34.2508 36.2777 34.1513V34.1006C36.2761 34.0813 36.2761 34.0618 36.2777 34.0425C36.3043 33.8757 36.365 33.7161 36.4559 33.5738C36.5694 33.3831 36.6946 33.1996 36.8309 33.0244C36.9759 32.8344 37.1302 32.6419 37.294 32.4469C37.4577 32.2519 37.6096 32.0675 37.7496 31.8938C37.874 31.7409 37.9898 31.5813 38.0965 31.4156C38.1728 31.3125 38.22 31.1907 38.2334 31.0631C38.2343 31.0385 38.2296 31.0141 38.2195 30.9916C38.2094 30.9692 38.1943 30.9494 38.1752 30.9337C38.1196 30.8979 38.0537 30.8814 37.9877 30.8869C37.8233 30.8896 37.6616 30.93 37.5152 31.005C37.3421 31.091 37.1802 31.198 37.0334 31.3237C36.8678 31.4645 36.713 31.6174 36.5702 31.7813C36.42 31.9527 36.2786 32.1317 36.1465 32.3175C36.0152 32.5025 35.8952 32.69 35.7865 32.88C35.6777 33.07 35.5852 33.2431 35.509 33.3994L35.4115 33.6094C35.369 33.6994 35.3234 33.8012 35.2746 33.915C35.2259 34.0287 35.1734 34.145 35.1171 34.2638L34.9652 34.6031L34.8415 34.8881L34.7646 35.0606C34.7496 35.0919 34.7184 35.1688 34.6709 35.2913L34.519 35.6888L34.3315 36.1669L34.1534 36.6413L34.0071 37.035C33.9659 37.1475 33.9377 37.2225 33.9265 37.2656C33.8896 37.3794 33.8444 37.4903 33.7915 37.5975C33.7434 37.6962 33.6836 37.7887 33.6134 37.8731C33.5492 37.9491 33.4717 38.0127 33.3846 38.0606C33.2961 38.1089 33.1966 38.1334 33.0959 38.1319C32.9746 38.1371 32.8549 38.1028 32.7546 38.0344C32.7043 37.9868 32.6659 37.9281 32.6425 37.8629C32.6191 37.7978 32.6112 37.7281 32.6196 37.6594C32.6199 37.5659 32.6312 37.4727 32.6534 37.3819C32.6765 37.2865 32.7053 37.1926 32.7396 37.1006C32.7734 37.0069 32.809 36.9131 32.8465 36.8288C32.884 36.7444 32.9159 36.6563 32.9459 36.5738C33.1521 36.1213 33.3621 35.6681 33.5759 35.2144C33.7896 34.7606 33.9946 34.3106 34.1909 33.8644L34.309 33.5887L34.2734 33.6244C34.0373 33.8516 33.7868 34.0633 33.5234 34.2581C33.2955 34.4299 33.0497 34.5764 32.7902 34.695C32.5688 34.7988 32.3279 34.8544 32.0834 34.8581C31.9488 34.8623 31.815 34.8367 31.6915 34.7831C31.5921 34.7377 31.5058 34.668 31.4402 34.5806C31.3745 34.4892 31.3286 34.3851 31.3052 34.275C31.3052 34.2356 31.2902 34.1925 31.2846 34.1513C31.218 34.2031 31.1505 34.2537 31.0821 34.3031C30.8628 34.4601 30.6285 34.5951 30.3827 34.7063C30.1893 34.7993 29.9785 34.851 29.764 34.8581C29.6805 34.8605 29.5975 34.845 29.5206 34.8127C29.4436 34.7804 29.3744 34.7319 29.3177 34.6706C29.1857 34.4907 29.1249 34.2683 29.1471 34.0463C29.1517 33.8018 29.1825 33.5585 29.239 33.3206C29.13 33.5101 29.0045 33.6895 28.864 33.8569C28.7125 34.0399 28.5415 34.2059 28.354 34.3519C28.1589 34.5029 27.9429 34.6248 27.7127 34.7138C27.4662 34.8081 27.2042 34.8551 26.9402 34.8525C26.8174 34.8531 26.6951 34.8373 26.5765 34.8056C26.4634 34.7754 26.3589 34.7196 26.2709 34.6425C26.1772 34.5572 26.1047 34.4513 26.059 34.3331C26.0008 34.178 25.9734 34.0131 25.9784 33.8475C25.9784 33.8475 25.9784 33.7744 26.0009 33.6412C26.0342 33.428 26.083 33.2174 26.1471 33.0113C26.2296 32.7238 26.3546 32.3488 26.5221 31.8863C26.6896 31.4238 26.9321 30.87 27.2496 30.225C27.3082 30.0782 27.4038 29.949 27.5271 29.85C27.626 29.7772 27.7455 29.7378 27.8684 29.7375C27.9248 29.7381 27.981 29.7463 28.0352 29.7619C28.0928 29.7777 28.1473 29.8031 28.1965 29.8369C28.2455 29.8706 28.2865 29.9148 28.3165 29.9663C28.3487 30.0233 28.3643 30.0883 28.3615 30.1538C28.3619 30.1975 28.3562 30.241 28.3446 30.2831C28.3141 30.3878 28.2726 30.489 28.2209 30.585C28.1584 30.71 28.0846 30.8525 27.9996 31.0125C27.9146 31.1725 27.8259 31.3456 27.7334 31.5319C27.6396 31.7169 27.5527 31.9088 27.4727 32.1075C27.3927 32.306 27.3239 32.5088 27.2665 32.715C27.2109 32.9105 27.1781 33.1119 27.169 33.315C27.1685 33.3932 27.1885 33.4701 27.2271 33.5381C27.2457 33.5709 27.2731 33.5978 27.3063 33.6157C27.3395 33.6336 27.377 33.6418 27.4146 33.6394C27.6715 33.6365 27.9207 33.5511 28.1252 33.3956C28.3604 33.223 28.5706 33.0185 28.7496 32.7881C28.9427 32.5424 29.1158 32.2816 29.2671 32.0081C29.4221 31.7306 29.5509 31.4762 29.6534 31.245C29.7271 31.0845 29.7897 30.9191 29.8409 30.75C29.8947 30.5843 29.9573 30.4216 30.0284 30.2625C30.0841 30.1273 30.1592 30.001 30.2515 29.8875C30.289 29.8401 30.3369 29.8019 30.3916 29.7759C30.4462 29.7499 30.506 29.7368 30.5665 29.7375C30.6294 29.7352 30.6919 29.7481 30.7487 29.7752C30.8055 29.8023 30.8549 29.8428 30.8927 29.8931C30.9743 30.0008 31.0167 30.1331 31.0127 30.2681C31.0056 30.3834 30.9796 30.4968 30.9359 30.6038C30.8846 30.7463 30.8221 30.9088 30.7484 31.0913C30.6746 31.2738 30.5896 31.4694 30.4934 31.6781C30.4021 31.8869 30.3171 32.0981 30.2384 32.3119C30.1649 32.5185 30.1023 32.7287 30.0509 32.9419C30.0018 33.1293 29.976 33.3219 29.974 33.5156C29.9698 33.5493 29.9735 33.5835 29.9848 33.6155C29.9961 33.6475 30.0146 33.6764 30.0389 33.7C30.0633 33.7237 30.0928 33.7413 30.1251 33.7516C30.1574 33.7619 30.1917 33.7646 30.2252 33.7594C30.379 33.7501 30.5292 33.7086 30.6659 33.6375C30.8621 33.5434 31.0475 33.4284 31.219 33.2944L31.3634 33.18C31.4119 32.9716 31.4745 32.7668 31.5509 32.5669C31.6846 32.2144 31.8202 31.8638 31.9577 31.515L32.3327 30.5588L34.0671 26.1844C34.1163 26.0325 34.2137 25.9008 34.3446 25.8094C34.4495 25.7405 34.5717 25.7028 34.6971 25.7006C34.8146 25.7005 34.9285 25.7409 35.0196 25.815C35.0717 25.8617 35.112 25.9199 35.1374 25.9851C35.1628 26.0502 35.1726 26.1204 35.1659 26.19C35.1645 26.2778 35.148 26.3647 35.1171 26.4469C35.0809 26.5464 35.0395 26.644 34.9934 26.7394C34.8984 26.9519 34.7846 27.2119 34.6521 27.5194C34.5196 27.8269 34.3784 28.1613 34.2284 28.5225C34.0771 28.8837 33.9227 29.2588 33.7652 29.6475L33.3021 30.7894L32.8784 31.8431L32.5371 32.7075C32.4898 32.8266 32.4485 32.948 32.4134 33.0713C32.3756 33.1928 32.3554 33.319 32.3534 33.4462C32.3506 33.5026 32.3622 33.5588 32.3871 33.6094C32.401 33.631 32.4207 33.6482 32.4439 33.6591C32.4671 33.6701 32.4929 33.6743 32.5184 33.6713C32.6232 33.6644 32.7254 33.6357 32.8184 33.5869C32.9536 33.5221 33.084 33.4475 33.2084 33.3638C33.3484 33.2713 33.4934 33.165 33.6434 33.045C33.7934 32.925 33.9434 32.8 34.0934 32.67C34.2421 32.545 34.3846 32.4163 34.5209 32.2838C34.6571 32.1513 34.7784 32.0325 34.8846 31.9275C34.9096 31.9022 34.9397 31.8824 34.9727 31.8694C35.0365 31.6819 35.0965 31.4944 35.1471 31.3069L35.2727 30.96C35.3278 30.8101 35.3904 30.663 35.4602 30.5194C35.5228 30.3857 35.6008 30.2599 35.6927 30.1444C35.7254 30.1008 35.7675 30.0653 35.8159 30.0403C35.8643 30.0153 35.9177 30.0015 35.9721 30C36.0316 29.9946 36.0916 30.0011 36.1486 30.0191C36.2056 30.0371 36.2584 30.0663 36.304 30.105C36.3408 30.1472 36.3688 30.1963 36.3865 30.2494C36.4042 30.3025 36.4112 30.3586 36.4071 30.4144C36.4059 30.4577 36.4021 30.5009 36.3959 30.5438C36.3959 30.6019 36.379 30.6656 36.3677 30.7312L36.3302 30.9187C36.3212 30.9628 36.3086 31.0061 36.2927 31.0481C36.434 30.8944 36.5865 30.7419 36.7502 30.5906C36.9105 30.4421 37.0809 30.3049 37.2602 30.18C37.4287 30.0621 37.6091 29.9622 37.7984 29.8819C37.972 29.8075 38.1588 29.7686 38.3477 29.7675C38.4747 29.7677 38.601 29.786 38.7227 29.8219C38.8417 29.8556 38.9539 29.9095 39.0546 29.9812C39.1521 30.0512 39.2333 30.1414 39.2927 30.2456C39.3566 30.3601 39.3883 30.4896 39.3846 30.6206C39.3801 30.8264 39.3322 31.029 39.244 31.215C39.1445 31.4358 39.0266 31.6478 38.8915 31.8488C38.7502 32.0613 38.5977 32.2681 38.434 32.4694C38.2702 32.6706 38.1165 32.8538 37.9727 33.0188L37.6109 33.4387C37.5434 33.5046 37.4916 33.5847 37.459 33.6731C37.4582 33.7227 37.4771 33.7706 37.5115 33.8063C37.5603 33.8448 37.6221 33.863 37.684 33.8569C37.7868 33.8437 37.8851 33.8064 37.9709 33.7481C38.1552 33.635 38.3319 33.5097 38.4996 33.3731C38.7271 33.1944 39.0152 32.955 39.364 32.655C39.604 32.4488 39.8834 32.2031 40.2002 31.9237L41.7152 17.8987C41.5083 18.0079 41.2918 18.0976 41.0684 18.1669C40.2082 18.4187 39.3281 18.5968 38.4377 18.6994ZM30.0002 15.375C23.4527 15.375 18.1465 16.1062 18.1465 17.01C18.1465 17.9137 23.4377 18.6413 30.0002 18.6413C36.5627 18.6413 41.854 17.91 41.854 17.0062C41.854 16.1025 36.5402 15.375 30.0002 15.375ZM34.7327 17.4881C34.7327 17.7 34.1027 17.8631 33.3246 17.8631C32.5465 17.8631 31.9165 17.6906 31.9165 17.4881C31.9165 17.2856 32.5465 17.1131 33.3246 17.1131C34.1027 17.1131 34.7271 17.2725 34.7271 17.4844L34.7327 17.4881Z" fill="#DA4648"/>
<path d="M32.1939 17.3138C32.187 17.3237 32.1831 17.3354 32.1826 17.3475C32.1826 17.4844 32.6907 17.595 33.3076 17.595C33.9245 17.595 34.4326 17.4844 34.4326 17.3475L35.9139 11.3475L41.8051 5.12816C41.9289 4.98753 41.6776 4.55066 41.2576 4.17566C40.8376 3.80066 40.3839 3.67503 40.2432 3.81753L33.9789 10.4232L32.1939 17.3138Z" fill="#DA4648"/>
</svg>
