<svg width="68" height="60" viewBox="0 0 68 60" fill="none" xmlns="http://www.w3.org/2000/svg">
<g clip-path="url(#clip0_32_76)">
<path d="M56.0211 19.4273C55.3042 19.1813 54.5811 18.9535 53.8527 18.7439C53.9751 18.2439 54.0877 17.75 54.1877 17.2647C55.8293 9.29601 54.7561 2.87627 51.0906 0.762586C47.5761 -1.26373 41.8285 0.849165 36.0238 5.90101C35.4517 6.39978 34.8923 6.91293 34.3461 7.43995C33.9805 7.0895 33.6084 6.74584 33.2301 6.40916C27.1464 1.00759 21.0485 -1.26899 17.3869 0.850744C13.8756 2.88338 12.8359 8.91838 14.3138 16.4705C14.4608 17.2184 14.6268 17.9625 14.8116 18.7021C13.9485 18.9473 13.1156 19.2084 12.3185 19.4863C5.18586 21.9731 0.630859 25.8702 0.630859 29.9126C0.630859 34.0876 5.52086 38.2752 12.9498 40.8144C13.5521 41.0194 14.1594 41.2094 14.7711 41.3842C14.5724 42.1807 14.3961 42.9826 14.2422 43.7889C12.8332 51.21 13.9335 57.1023 17.4353 59.1221C21.0522 61.2079 27.1227 59.0642 33.0335 53.8971C33.5128 53.477 33.9815 53.045 34.4393 52.6015C35.0307 53.1722 35.638 53.7263 36.2603 54.2631C41.9861 59.19 47.6409 61.1794 51.1393 59.1542C54.7527 57.0623 55.9272 50.7323 54.4024 43.031C54.2823 42.4277 54.1476 41.8273 53.9985 41.2305C54.4248 41.1042 54.8432 40.9742 55.2511 40.8389C62.9743 38.2802 67.9993 34.1434 67.9993 29.9126C67.9993 25.8555 63.2972 21.9321 56.0211 19.4273ZM54.3461 38.1073C53.9777 38.2292 53.5998 38.3468 53.2145 38.4613C52.3619 35.7621 51.2114 32.8921 49.8032 29.9265C51.1469 27.0318 52.2532 24.1984 53.0819 21.5168C53.7711 21.7163 54.4398 21.9265 55.0845 22.1484C61.3188 24.2947 65.1214 27.4676 65.1214 29.9126C65.1214 32.5168 61.0145 35.8976 54.3461 38.1073ZM51.5793 43.59C52.2535 46.9952 52.3495 50.0742 51.903 52.4813C51.5019 54.6442 50.6951 56.086 49.6972 56.6636C47.5743 57.8926 43.034 56.2952 38.1374 52.0815C37.5586 51.5824 36.9937 51.0673 36.4435 50.5368C38.3419 48.4607 40.239 46.0473 42.0906 43.3668C45.3474 43.0779 48.4243 42.6052 51.2145 41.9602C51.349 42.5005 51.4706 43.0439 51.5793 43.59ZM23.5982 56.4513C21.524 57.1836 19.8719 57.2047 18.8732 56.6289C16.7482 55.4034 15.8648 50.6721 17.0698 44.3257C17.213 43.5758 17.3771 42.83 17.5616 42.0892C20.3211 42.6997 23.3756 43.1386 26.6401 43.4034C28.5043 46.0263 30.4561 48.4371 32.4232 50.5481C32.0052 50.9526 31.5773 51.3468 31.1398 51.7302C28.5259 54.015 25.9067 55.636 23.5982 56.4513ZM13.8809 38.0913C10.5959 36.9684 7.88297 35.5092 6.02349 33.9168C4.35244 32.486 3.50902 31.0652 3.50902 29.9126C3.50902 27.4594 7.16612 24.3305 13.2659 22.2039C14.0061 21.946 14.7809 21.7026 15.5848 21.4742C16.428 24.2163 17.5338 27.0834 18.8682 29.9826C17.5164 32.9247 16.3948 35.8376 15.5435 38.6121C14.9851 38.4521 14.4307 38.2785 13.8809 38.0913ZM17.1382 15.9176C15.8722 9.44732 16.713 4.56653 18.829 3.34153C21.0827 2.0368 26.0664 3.89706 31.3193 8.56127C31.6618 8.86611 31.9988 9.17712 32.3301 9.49416C30.3727 11.596 28.4388 13.9889 26.5911 16.5963C23.4227 16.89 20.3898 17.3615 17.6014 17.9934C17.4296 17.3055 17.2752 16.6132 17.1382 15.9176ZM46.198 23.0934C45.5393 21.9557 44.8563 20.8324 44.1493 19.7242C46.2988 19.996 48.3582 20.3568 50.2922 20.7978C49.7116 22.6589 48.988 24.6044 48.1361 26.5992C47.5135 25.4178 46.8673 24.249 46.198 23.0934ZM34.3474 11.551C35.6748 12.9892 37.0043 14.5947 38.3119 16.3368C35.6593 16.2115 33.0022 16.211 30.3495 16.3352C31.6585 14.6092 32.9993 13.0057 34.3474 11.551ZM22.4209 23.1131C21.7599 24.2594 21.1258 25.4209 20.519 26.5968C19.6811 24.6092 18.964 22.6547 18.3785 20.7673C20.3006 20.3373 22.3503 19.9857 24.4861 19.7189C23.7712 20.8339 23.0826 21.9658 22.4209 23.1131ZM24.5474 40.311C22.3409 40.0647 20.2603 39.7313 18.3388 39.3129C18.9335 37.3918 19.6664 35.3957 20.5224 33.3655C21.1316 34.5422 21.7684 35.7045 22.4322 36.8513C23.1148 38.0302 23.8217 39.185 24.5474 40.311ZM34.4269 48.4768C33.0627 47.0052 31.7022 45.3771 30.3735 43.626C31.6635 43.6765 32.9785 43.7023 34.3151 43.7023C35.6882 43.7023 37.0456 43.6715 38.3817 43.6121C37.0698 45.3947 35.7453 47.0252 34.4269 48.4768ZM48.1632 33.2618C49.0638 35.3144 49.8227 37.3 50.4253 39.1881C48.4722 39.6339 46.3632 39.9929 44.1411 40.2594C44.8532 39.1306 45.5427 37.9878 46.2093 36.8315C46.887 35.6563 47.5385 34.4661 48.1632 33.2618ZM43.7164 35.3936C42.6959 37.1664 41.6181 38.9054 40.4845 40.6081C38.4313 40.7535 36.3735 40.8258 34.3151 40.8247C32.2185 40.8247 30.1793 40.7594 28.2156 40.6321C27.0525 38.9333 25.9541 37.1912 24.9227 35.4094C23.8962 33.6371 22.9376 31.8264 22.0485 29.9813C22.9353 28.1357 23.8913 26.3242 24.9143 24.5505L24.914 24.5507C25.9366 22.7766 27.0263 21.0419 28.1806 19.3505C30.184 19.1989 32.2385 19.12 34.3148 19.12C36.4006 19.12 38.458 19.1997 40.4609 19.3523C41.6035 21.0412 42.6862 22.7699 43.7069 24.5352C44.7333 26.305 45.7019 28.1077 46.6111 29.9405C45.7113 31.792 44.7457 33.6109 43.7164 35.3936ZM49.6532 3.25574C51.909 4.5568 52.7864 9.80337 51.369 16.6836C51.2785 17.1226 51.1769 17.5697 51.0664 18.0231C48.2711 17.3778 45.2361 16.8981 42.0585 16.6C40.2074 13.9639 38.2893 11.5673 36.3638 9.49259C36.8684 9.00614 37.385 8.53231 37.9132 8.07153C42.8869 3.74338 47.5353 2.03443 49.6532 3.25574ZM34.3151 23.8968C37.6374 23.8968 40.3309 26.5902 40.3309 29.9126C40.3309 33.235 37.6374 35.9284 34.3151 35.9284C30.9927 35.9284 28.2993 33.235 28.2993 29.9126C28.2993 26.5902 30.9927 23.8968 34.3151 23.8968Z" fill="#00D8FF"/>
</g>
<defs>
<clipPath id="clip0_32_76">
<rect width="67.37" height="60" fill="white" transform="translate(0.629883)"/>
</clipPath>
</defs>
</svg>
