<svg width="60" height="60" viewBox="0 0 60 60" fill="none" xmlns="http://www.w3.org/2000/svg">
<g clip-path="url(#clip0_32_78)">
<path d="M45.9375 0H14.0625C6.296 0 0 6.296 0 14.0625V45.9375C0 53.704 6.296 60 14.0625 60H45.9375C53.704 60 60 53.704 60 45.9375V14.0625C60 6.296 53.704 0 45.9375 0Z" fill="#764ABC"/>
<path d="M39.042 38.8123C40.7719 38.6332 42.0842 37.1419 42.0244 35.3524C41.9649 33.563 40.4735 32.1314 38.6841 32.1314H38.5648C36.7156 32.191 35.284 33.7418 35.3435 35.591C35.4033 36.4859 35.7612 37.2612 36.2979 37.7981C34.2699 41.7947 31.1681 44.7176 26.5153 47.1633C23.3538 48.8335 20.0731 49.4299 16.7923 49.0125C14.108 48.6546 12.0204 47.4614 10.7079 45.4931C8.79916 42.5702 8.62033 39.4088 10.2307 36.2473C11.3642 33.9804 13.1536 32.3102 14.2871 31.4752C14.0485 30.6999 13.6906 29.3874 13.5115 28.433C4.86236 34.6964 5.75697 43.1667 8.3815 47.1633C10.3503 50.1457 14.3466 51.9949 18.7608 51.9949C19.9538 51.9949 21.1467 51.8756 22.3397 51.5773C29.9752 50.0862 35.7612 45.5527 39.042 38.8123Z" fill="white"/>
<path d="M49.5402 31.4156C45.0069 26.1065 38.326 23.1839 30.6908 23.1839H29.7364C29.1995 22.1099 28.066 21.3942 26.8135 21.3942H26.6942C24.845 21.4539 23.4135 23.0048 23.473 24.854C23.5327 26.6435 25.0238 28.075 26.8135 28.075H26.9328C28.2451 28.0155 29.3785 27.1804 29.8557 26.047H30.9294C35.4627 26.047 39.7576 27.3592 43.6349 29.9242C46.6173 31.8928 48.7649 34.4578 49.9578 37.5595C50.972 40.0647 50.9122 42.5104 49.8385 44.5982C48.1684 47.7597 45.3648 49.4896 41.6663 49.4896C39.2804 49.4896 37.0138 48.7739 35.8206 48.2369C35.1645 48.8334 33.9716 49.7878 33.1365 50.3842C35.7013 51.5772 38.326 52.2335 40.8313 52.2335C46.5578 52.2335 50.7929 49.072 52.4035 45.9105C54.1335 42.4509 54.0142 36.4858 49.5402 31.4156Z" fill="white"/>
<path d="M19.2381 39.8264C19.2979 41.6159 20.7889 43.0474 22.5786 43.0474H22.6979C24.5469 42.9877 25.9787 41.4368 25.9189 39.5876C25.8594 37.7981 24.3681 36.3666 22.5786 36.3666H22.4591C22.34 36.3666 22.161 36.3666 22.0419 36.4263C19.596 32.37 18.5821 27.9558 18.94 23.1839C19.1786 19.605 20.3715 16.503 22.4593 13.9378C24.189 11.7309 27.5296 10.6573 29.7962 10.5975C36.1192 10.4782 38.8035 18.352 38.9823 21.5135C39.7579 21.6926 41.0701 22.1102 41.965 22.4084C41.2492 12.7453 35.2841 7.73438 29.5576 7.73438C24.189 7.73438 19.2381 11.6116 17.2696 17.3381C14.5257 24.9734 16.3152 32.3102 19.6555 38.0965C19.3574 38.5139 19.1783 39.1702 19.2381 39.8264Z" fill="white"/>
</g>
<defs>
<clipPath id="clip0_32_78">
<rect width="60" height="60" fill="white"/>
</clipPath>
</defs>
</svg>
