<svg width="107" height="151" fill="none" xmlns="http://www.w3.org/2000/svg"><path d="M53.435 150.619L9.89 138.521.186 29.601h106.628L97.1 138.503l-43.665 12.115z" fill="#264DE4"/><path d="M88.784 131.57l8.3-93.064H53.5v102.853l35.284-9.789z" fill="#2965F1"/><path d="M22.432 78.903l1.196 13.359H53.5V78.903H22.432zm-2.404-27.038l1.213 13.359H53.5V51.865H20.028zM53.5 113.597l-.059.016-14.866-4.017-.95-10.655h-13.4l1.87 20.976 27.344 7.596.061-.017v-13.899z" fill="#EBEBEB"/><path d="M25.28 0h16.167v6.766h-9.406v6.766h9.407v6.766H25.28V0zm19.401 0H60.85v5.884h-9.407V7.06h9.407v13.533H44.682v-6.179h9.406v-1.177h-9.407V0zm19.401 0H80.25v5.884h-9.406V7.06h9.406v13.533H64.082v-6.179h9.407v-1.177h-9.406V0z" fill="#000"/><path d="M84.483 78.903l2.41-27.038h-33.44v13.359h18.81l-1.215 13.68H53.454v13.358h16.437l-1.55 17.325-14.887 4.022v13.897l27.365-7.589.2-2.257 3.138-35.17.326-3.587z" fill="#fff"/></svg>