<svg width="107" height="151" fill="none" xmlns="http://www.w3.org/2000/svg"><path d="M106.814 29.6L97.1 138.504l-43.665 12.115L9.89 138.521.186 29.601h106.628z" fill="#E44D26"/><path d="M53.5 141.359l35.284-9.789 8.3-93.064H53.5v102.853z" fill="#F16529"/><path d="M34.616 65.224H53.5V51.865H20.028l.32 3.584 3.28 36.813H53.5V78.903H35.836l-1.22-13.68zm3.009 33.717h-13.4l1.87 20.976 27.343 7.596.062-.017v-13.899l-.059.016-14.866-4.017-.95-10.655z" fill="#EBEBEB"/><path d="M10.107 0h6.783v6.707h6.206V0h6.784v20.311h-6.784V13.51H16.89v6.801h-6.783V0zM38.8 6.736h-5.971V0h18.73v6.736h-5.974V20.31H38.8V6.736zM54.532 0h7.074l4.35 7.137L70.305 0h7.076v20.311h-6.756V10.244l-4.667 7.221h-.117l-4.67-7.221V20.31h-6.638V0zm26.224 0h6.785v13.598h9.54v6.713H80.755V0z" fill="#000"/><path d="M53.454 92.262h16.437l-1.55 17.325-14.887 4.022v13.897l27.365-7.589.2-2.257 3.138-35.17.326-3.587H53.454v13.359zm0-27.07v.032h32.243l.268-3.003.608-6.772.32-3.584h-33.44v13.327z" fill="#fff"/></svg>