<svg width="151" height="151" fill="none" xmlns="http://www.w3.org/2000/svg"><path d="M0 0h151v151H0V0z" fill="#F7DF1E"/><path d="M39.704 126.186l11.555-6.993c2.23 3.953 4.257 7.297 9.122 7.297 4.662 0 7.603-1.824 7.603-8.918V69.324h14.19v48.448c0 14.697-8.616 21.387-21.185 21.387-11.352 0-17.941-5.879-21.286-12.974m50.178-1.519l11.554-6.69c3.042 4.967 6.995 8.616 13.988 8.616 5.88 0 9.629-2.94 9.629-6.994 0-4.865-3.851-6.589-10.339-9.426l-3.546-1.522c-10.238-4.357-17.03-9.83-17.03-21.386 0-10.643 8.109-18.752 20.78-18.752 9.021 0 15.508 3.143 20.17 11.353l-11.049 7.096c-2.433-4.359-5.067-6.082-9.122-6.082-4.156 0-6.791 2.636-6.791 6.082 0 4.257 2.635 5.98 8.717 8.616l3.547 1.52c12.062 5.17 18.853 10.44 18.853 22.299 0 12.772-10.034 19.765-23.515 19.765-13.177 0-21.691-6.284-25.847-14.495" fill="#000"/></svg>