<svg width="178" height="178" fill="none" xmlns="http://www.w3.org/2000/svg"><path d="M24.809 51.434c-13.024 18.713-11.407 43.062-1.454 62.946l.727 1.409c.156.297.304.608.467.897.09.178.193.349.29.512.467.863.957 1.714 1.468 2.551l.541.89a68.215 68.215 0 001.565 2.448 75.419 75.419 0 001.64 2.366l.266.363c.468.653.957 1.298 1.454 1.936l.549.697 1.35 1.654.511.608c.609.72 1.239 1.439 1.87 2.144l.037.037c.03.029.051.044.074.081.615.675 1.26 1.343 1.898 2.01l.616.616 1.52 1.491.623.593a84.9 84.9 0 002.084 1.899l.03.029.363.304a63.974 63.974 0 001.892 1.595l.779.623a82.114 82.114 0 004.19 3.145c.215.155.423.311.645.459l.178.127c.564.393 1.142.763 1.713 1.134.245.163.49.334.75.497a81.098 81.098 0 006.57 3.775c.483.252.957.505 1.447.749l.334.164.593.289c.756.356 1.52.719 2.284 1.06l.49.215a69.08 69.08 0 002.67 1.106l.653.259c.939.365 1.883.716 2.833 1.053.927.327 1.869.631 2.818.92l.682.208c.95.289 1.899.63 2.893.815 62.982 11.481 81.272-37.839 81.272-37.839-15.368 20.01-42.631 25.29-68.471 19.416-.979-.222-1.936-.526-2.892-.808l-.72-.215a80.867 80.867 0 01-5.6-1.958l-.69-.267c-.89-.349-1.772-.72-2.64-1.098l-.526-.23a87.504 87.504 0 01-2.233-1.038l-.645-.311c-.578-.282-1.15-.586-1.72-.876-.379-.2-.772-.393-1.15-.608a60.522 60.522 0 01-2.062-1.157l-.697-.385a85.555 85.555 0 01-2.692-1.654l-.727-.482a80.912 80.912 0 01-1.921-1.276l-.616-.438c-.608-.43-1.216-.86-1.81-1.305a88.727 88.727 0 01-2.432-1.891l-.734-.586a89.295 89.295 0 01-2.032-1.713 89.433 89.433 0 01-2.366-2.136 15.03 15.03 0 01-.601-.579 57.335 57.335 0 01-1.543-1.506l-.6-.6a82.609 82.609 0 01-1.884-1.995l-.09-.089a89.06 89.06 0 01-1.913-2.173l-.497-.601a77.266 77.266 0 01-3.478-4.443C28.658 87.702 23.51 60.713 34.97 38.552" fill="#699BF7"/><path d="M65.222 35.667c-9.419 13.55-8.9 31.691-1.557 46.02a60.49 60.49 0 004.16 6.957c1.417 2.025 2.974 4.428 4.85 6.052.683.75 1.388 1.476 2.107 2.188l.564.549a56.02 56.02 0 002.158 2.01l.082.074.022.015a61.394 61.394 0 002.522 2.084l.578.445c.887.687 1.792 1.35 2.715 1.988.393.274.8.533 1.194.793.193.126.378.26.578.378a51.41 51.41 0 002.233 1.365c.563.326 1.15.645 1.728.964.193.111.408.215.608.319.408.208.8.423 1.209.616.893.441 1.796.864 2.707 1.268l.549.23c.69.289 1.38.571 2.084.838l.868.326c.637.238 1.268.445 1.898.66l.868.275c.897.282 1.802.63 2.744.793 48.624 8.055 59.838-29.377 59.838-29.377-10.117 14.566-29.711 21.523-50.619 16.094a58.413 58.413 0 01-5.511-1.72l-.875-.32a65.101 65.101 0 01-5.169-2.255c-.423-.207-.838-.43-1.26-.644l-.735-.379a69.33 69.33 0 01-3.953-2.321l-.594-.393a56.725 56.725 0 01-4.464-3.226c-9.153-7.224-16.413-17.103-19.862-28.295-3.62-11.614-2.833-24.646 3.426-35.23" fill="#699BF7"/><path d="M99.228 23.89c-5.555 8.172-6.104 18.31-2.255 27.337 4.064 9.582 12.393 17.088 22.109 20.655.572.214 1.151.41 1.735.586.572.178 1.128.393 1.729.497 26.848 5.184 34.124-13.773 36.059-16.569-6.378 9.19-17.102 11.392-30.245 8.196a40.1 40.1 0 01-6.964-2.552 39.958 39.958 0 01-6.638-4.042c-11.755-8.93-19.083-25.965-11.392-39.842" fill="#699BF7"/></svg>