<svg width="181" height="114" fill="none" xmlns="http://www.w3.org/2000/svg"><g filter="url(#filter0_d_2_161)"><path d="M89.561 105.935a3.427 3.427 0 01-1.642-.43l-5.2-3.089c-.783-.431-.392-.587-.157-.665 1.056-.352 1.251-.431 2.346-1.056.117-.078.274-.039.391.039l3.989 2.385c.156.079.352.079.469 0l15.603-9.033c.156-.078.235-.235.235-.43V75.63c0-.196-.079-.352-.235-.43l-15.603-8.994c-.157-.079-.352-.079-.47 0L73.685 75.2c-.156.078-.235.273-.235.43v18.027c0 .156.079.352.235.43l4.262 2.464c2.308 1.173 3.754-.196 3.754-1.564V77.192c0-.235.196-.47.47-.47h1.994c.235 0 .47.196.47.47v17.793c0 3.089-1.682 4.888-4.615 4.888-.9 0-1.603 0-3.598-.978l-4.106-2.346a3.3 3.3 0 01-1.642-2.855V75.668a3.3 3.3 0 011.642-2.855L87.92 63.78c.978-.547 2.307-.547 3.285 0l15.603 9.033a3.301 3.301 0 011.642 2.855v18.027a3.301 3.301 0 01-1.642 2.855l-15.603 9.033a3.997 3.997 0 01-1.642.352zm4.81-12.396c-6.843 0-8.25-3.129-8.25-5.788 0-.235.195-.469.469-.469h2.033c.234 0 .43.156.43.391.313 2.073 1.212 3.09 5.358 3.09 3.284 0 4.692-.744 4.692-2.504 0-1.016-.391-1.759-5.514-2.267-4.262-.43-6.921-1.37-6.921-4.771 0-3.168 2.66-5.045 7.117-5.045 5.005 0 7.469 1.72 7.782 5.474a.626.626 0 01-.118.353c-.078.078-.195.156-.313.156h-2.033a.458.458 0 01-.43-.352c-.47-2.15-1.682-2.855-4.888-2.855-3.598 0-4.028 1.252-4.028 2.19 0 1.135.508 1.486 5.357 2.112 4.81.626 7.078 1.525 7.078 4.888-.039 3.441-2.854 5.397-7.82 5.397z" fill="#539E43"/><path d="M41.15 35.43a1.99 1.99 0 00-1.017-1.722l-16.58-9.541a2.408 2.408 0 00-.9-.274h-.156c-.313 0-.626.117-.9.274l-16.58 9.541A1.989 1.989 0 004 35.43l.04 25.653c0 .352.195.704.507.86.313.196.704.196.978 0l9.855-5.63a1.99 1.99 0 001.016-1.721V42.585a1.99 1.99 0 011.017-1.72l4.184-2.425a1.894 1.894 0 011.017-.274c.352 0 .704.079.978.274l4.184 2.425a1.989 1.989 0 011.017 1.72v12.006a1.99 1.99 0 001.016 1.72l9.855 5.631a.954.954 0 001.016 0c.313-.156.509-.508.509-.86l-.04-25.653zM120.845.116c-.312-.156-.703-.156-.978 0-.312.196-.508.509-.508.86v25.419a.75.75 0 01-.352.626.747.747 0 01-.703 0l-4.145-2.386a2.017 2.017 0 00-1.995 0l-16.58 9.58a1.99 1.99 0 00-1.017 1.721V55.06a1.99 1.99 0 001.017 1.72l16.58 9.581a2.017 2.017 0 001.995 0l16.58-9.58a1.99 1.99 0 001.017-1.721V7.39c0-.743-.391-1.408-1.017-1.76L120.846.117h-.001zm-1.525 48.647c0 .195-.078.352-.234.43l-5.67 3.285a.585.585 0 01-.509 0l-5.67-3.285c-.157-.078-.235-.274-.235-.43v-6.57c0-.195.078-.352.235-.43l5.67-3.285a.579.579 0 01.509 0l5.67 3.285c.156.078.234.274.234.43v6.57zm56.702-6.726c.626-.352.978-1.017.978-1.721v-4.653c0-.704-.391-1.369-.978-1.72l-16.463-9.542a2.014 2.014 0 00-1.994 0l-16.581 9.58a1.99 1.99 0 00-1.017 1.72v19.123c0 .704.392 1.369 1.017 1.72l16.463 9.386c.626.352 1.369.352 1.956 0l9.971-5.553c.313-.156.509-.508.509-.86s-.196-.704-.509-.86l-16.658-9.581c-.313-.196-.509-.508-.509-.86v-5.983c0-.352.196-.704.509-.86l5.2-2.973a.958.958 0 011.017 0l5.201 2.972c.313.196.509.509.509.86v4.693c0 .352.195.704.508.86a.954.954 0 001.017 0l9.854-5.748z" fill="#333"/><path d="M158.308 41.138a.354.354 0 01.391 0l3.167 1.838a.412.412 0 01.196.352v3.676a.41.41 0 01-.196.352l-3.167 1.838a.355.355 0 01-.391 0l-3.168-1.838a.411.411 0 01-.195-.352v-3.676a.41.41 0 01.195-.352l3.168-1.838z" fill="#539E43"/><path d="M85.377 33.982L68.836 24.48a2.716 2.716 0 00-.509-.196L49.792 56.038c.153.187.339.346.547.469l16.542 9.503a1.906 1.906 0 001.525.195l17.401-31.831c-.117-.157-.273-.274-.43-.392z" fill="url(#paint0_linear_2_161)"/><path fill-rule="evenodd" clip-rule="evenodd" d="M66.334 21l-.235.117h.313l-.078-.118z" fill="url(#paint1_linear_2_161)"/><path fill-rule="evenodd" clip-rule="evenodd" d="M85.416 56.467c.47-.273.822-.743.978-1.25L68.25 24.244c-.47-.078-.978-.04-1.408.235l-16.424 9.463 17.715 32.3c.257-.042.507-.12.743-.234l16.541-9.541z" fill="url(#paint2_linear_2_161)"/><path fill-rule="evenodd" clip-rule="evenodd" d="M86.942 56.155l-.118-.196v.274l.118-.078z" fill="url(#paint3_linear_2_161)"/><path fill-rule="evenodd" clip-rule="evenodd" d="M85.416 56.467L68.914 65.97a2.359 2.359 0 01-.743.234l.313.587 18.301-10.597v-.235l-.47-.782c-.077.547-.43 1.017-.899 1.29z" fill="url(#paint4_linear_2_161)"/><path fill-rule="evenodd" clip-rule="evenodd" d="M85.416 56.467L68.914 65.97a2.359 2.359 0 01-.743.234l.313.587 18.301-10.597v-.235l-.47-.782c-.077.547-.43 1.017-.899 1.29z" fill="url(#paint5_linear_2_161)"/></g><defs><linearGradient id="paint0_linear_2_161" x1="65.378" y1="47.456" x2="110.571" y2="22.902" gradientUnits="userSpaceOnUse"><stop offset=".138" stop-color="#41873F"/><stop offset=".403" stop-color="#54A044"/><stop offset=".714" stop-color="#66B848"/><stop offset=".908" stop-color="#6CC04A"/></linearGradient><linearGradient id="paint1_linear_2_161" x1="52.279" y1="21.015" x2="82.781" y2="21.015" gradientUnits="userSpaceOnUse"><stop offset=".092" stop-color="#6CC04A"/><stop offset=".286" stop-color="#66B848"/><stop offset=".597" stop-color="#54A044"/><stop offset=".862" stop-color="#41873F"/></linearGradient><linearGradient id="paint2_linear_2_161" x1="48.838" y1="45.225" x2="86.933" y2="45.225" gradientUnits="userSpaceOnUse"><stop offset=".092" stop-color="#6CC04A"/><stop offset=".286" stop-color="#66B848"/><stop offset=".597" stop-color="#54A044"/><stop offset=".862" stop-color="#41873F"/></linearGradient><linearGradient id="paint3_linear_2_161" x1="75.403" y1="56.058" x2="86.857" y2="56.058" gradientUnits="userSpaceOnUse"><stop offset=".092" stop-color="#6CC04A"/><stop offset=".286" stop-color="#66B848"/><stop offset=".597" stop-color="#54A044"/><stop offset=".862" stop-color="#41873F"/></linearGradient><linearGradient id="paint4_linear_2_161" x1="48.839" y1="61.016" x2="86.933" y2="61.016" gradientUnits="userSpaceOnUse"><stop offset=".092" stop-color="#6CC04A"/><stop offset=".286" stop-color="#66B848"/><stop offset=".597" stop-color="#54A044"/><stop offset=".862" stop-color="#41873F"/></linearGradient><linearGradient id="paint5_linear_2_161" x1="92.483" y1="30.663" x2="82.832" y2="81.233" gradientUnits="userSpaceOnUse"><stop stop-color="#41873F"/><stop offset=".329" stop-color="#418B3D"/><stop offset=".635" stop-color="#419637"/><stop offset=".932" stop-color="#3FA92D"/><stop offset="1" stop-color="#3FAE2A"/></linearGradient><filter id="filter0_d_2_161" x="0" y="0" width="181" height="113.935" filterUnits="userSpaceOnUse" color-interpolation-filters="sRGB"><feFlood flood-opacity="0" result="BackgroundImageFix"/><feColorMatrix in="SourceAlpha" values="0 0 0 0 0 0 0 0 0 0 0 0 0 0 0 0 0 0 127 0" result="hardAlpha"/><feOffset dy="4"/><feGaussianBlur stdDeviation="2"/><feComposite in2="hardAlpha" operator="out"/><feColorMatrix values="0 0 0 0 0 0 0 0 0 0 0 0 0 0 0 0 0 0 0.25 0"/><feBlend in2="BackgroundImageFix" result="effect1_dropShadow_2_161"/><feBlend in="SourceGraphic" in2="effect1_dropShadow_2_161" result="shape"/></filter></defs></svg>