<svg width="170" height="152" fill="none" xmlns="http://www.w3.org/2000/svg"><path d="M139.774 49.266a113.419 113.419 0 00-5.472-1.733c.309-1.268.593-2.52.845-3.751 4.143-20.208 1.435-36.488-7.815-41.848-8.869-5.139-23.372.22-38.02 13.03a113.899 113.899 0 00-4.234 3.903 103.79 103.79 0 00-2.816-2.614C66.91 2.555 51.522-3.218 42.282 2.157c-8.86 5.155-11.483 20.46-7.754 39.61.371 1.898.79 3.785 1.256 5.66-2.178.622-4.28 1.284-6.291 1.989C11.494 55.722 0 65.605 0 75.856c0 10.588 12.34 21.207 31.086 27.646a95.98 95.98 0 004.596 1.445c-.501 2.02-.946 4.054-1.335 6.098-3.555 18.82-.779 33.762 8.058 38.884 9.127 5.29 24.445-.147 39.361-13.25a97.107 97.107 0 003.547-3.285 111.676 111.676 0 004.596 4.213c14.448 12.494 28.718 17.54 37.546 12.404 9.118-5.305 12.082-21.358 8.234-40.888a97.637 97.637 0 00-1.019-4.566c1.076-.32 2.132-.65 3.161-.993C157.32 97.076 170 86.585 170 75.856c0-10.288-11.865-20.238-30.226-26.59zm-4.227 47.371c-.93.31-1.883.608-2.855.898-2.152-6.845-5.055-14.123-8.609-21.644 3.391-7.34 6.183-14.526 8.274-21.326 1.739.506 3.427 1.04 5.053 1.602 15.732 5.443 25.328 13.489 25.328 19.69 0 6.603-10.364 15.177-27.191 20.78zm-6.982 13.904c1.701 8.635 1.944 16.443.817 22.548-1.012 5.485-3.048 9.141-5.566 10.606-5.357 3.116-16.814-.934-29.17-11.62a104.718 104.718 0 01-4.275-3.917c4.79-5.265 9.578-11.385 14.25-18.183 8.218-.733 15.983-1.931 23.024-3.567a89.6 89.6 0 01.92 4.133zm-70.608 32.615c-5.234 1.858-9.403 1.911-11.924.451-5.362-3.108-7.591-15.106-4.55-31.2.361-1.902.775-3.793 1.24-5.672 6.964 1.548 14.672 2.661 22.91 3.333 4.704 6.651 9.63 12.765 14.593 18.118a89.055 89.055 0 01-3.239 2.998c-6.596 5.794-13.205 9.905-19.03 11.972zm-24.522-46.56C25.146 93.75 18.3 90.05 13.608 86.01c-4.217-3.628-6.345-7.23-6.345-10.154 0-6.22 9.228-14.156 24.62-19.548a104.884 104.884 0 015.852-1.851c2.128 6.954 4.918 14.224 8.286 21.577-3.411 7.46-6.242 14.847-8.39 21.883a89.248 89.248 0 01-4.196-1.32zm8.22-56.23c-3.194-16.408-1.073-28.786 4.267-31.892C51.609 5.165 64.185 9.883 77.44 21.71a95.965 95.965 0 012.551 2.366c-4.94 5.33-9.82 11.398-14.482 18.01-7.995.745-15.648 1.94-22.685 3.543-.433-1.744-.823-3.5-1.169-5.264zm73.331 18.197a232.5 232.5 0 00-5.17-8.544c5.424.69 10.621 1.604 15.501 2.723-1.465 4.72-3.291 9.653-5.44 14.712a256.08 256.08 0 00-4.891-8.89zm-29.904-29.27c3.35 3.647 6.704 7.718 10.004 12.136a212.812 212.812 0 00-20.093-.004c3.303-4.377 6.687-8.443 10.089-12.132zm-30.096 29.32a215.927 215.927 0 00-4.8 8.835c-2.114-5.041-3.923-9.997-5.401-14.784 4.85-1.09 10.023-1.982 15.412-2.658a214.722 214.722 0 00-5.211 8.606v.001zm5.366 43.613c-5.568-.625-10.818-1.47-15.667-2.531 1.5-4.872 3.35-9.934 5.51-15.083a214.564 214.564 0 0010.157 17.614zm24.93 20.708c-3.442-3.732-6.876-7.861-10.228-12.302 3.255.128 6.573.194 9.946.194 3.465 0 6.89-.078 10.262-.229-3.31 4.521-6.653 8.656-9.98 12.337zm34.663-38.584c2.272 5.205 4.188 10.24 5.708 15.028-4.928 1.131-10.25 2.041-15.858 2.717a255.055 255.055 0 005.219-8.693c1.71-2.98 3.354-5.999 4.931-9.052zm-11.221 5.406a238.946 238.946 0 01-8.156 13.223c-5.181.369-10.374.552-15.568.549-5.29 0-10.436-.165-15.392-.488a207.202 207.202 0 01-8.31-13.244h.002a205.44 205.44 0 01-7.254-13.766c2.238-4.68 4.65-9.274 7.232-13.772h-.001c2.58-4.498 5.33-8.897 8.243-13.187a204.815 204.815 0 0130.989.006 220.312 220.312 0 018.191 13.142c2.59 4.489 5.034 9.06 7.328 13.708a220.088 220.088 0 01-7.304 13.829zm14.981-81.5c5.692 3.3 7.906 16.605 4.33 34.053a99.208 99.208 0 01-.764 3.396c-7.054-1.636-14.712-2.853-22.731-3.609-4.671-6.685-9.511-12.762-14.37-18.023a107.047 107.047 0 013.91-3.604c12.55-10.976 24.28-15.31 29.625-12.213zM85 60.6c8.384 0 15.18 6.83 15.18 15.256 0 8.425-6.796 15.256-15.18 15.256s-15.18-6.83-15.18-15.256c0-8.425 6.796-15.255 15.18-15.255z" fill="#00D8FF"/></svg>