<svg xmlns="http://www.w3.org/2000/svg" width="1920" height="282" preserveAspectRatio="none"><g mask="url(&quot;#SvgjsMask1080&quot;)" fill="none"><path fill="rgba(255, 255, 255, 1)" d="M0 0h1920v282H0z"/><path d="M0 85c192-8.6 576-44.2 960-43 384 1.2 768 39.2 960 49v191H0z" fill="rgba(124, 255, 153, 1)"/><path d="M0 224c29.6-13.4 88.8-66.8 148-67 59.2-.2 88.8 69.4 148 66 59.2-3.4 88.8-94.2 148-83 59.2 11.2 88.8 139 148 139s88.8-127 148-139 88.8 77.8 148 79c59.2 1.2 88.8-84 148-73s88.8 127.8 148 128c59.2.2 88.8-118.8 148-127 59.2-8.2 88.8 76.6 148 86 59.2 9.4 88.8-37.2 148-39 59.2-1.8 89.6 38.2 148 30 58.4-8.2 115.2-56.8 144-71v129H0z" fill="rgba(124, 255, 153, 1)"/></g><defs><mask id="SvgjsMask1080"><path fill="#fff" d="M0 0h1920v282H0z"/></mask></defs></svg>