<svg width="52" height="52" viewBox="0 0 52 52" fill="none" xmlns="http://www.w3.org/2000/svg">
<path d="M26 45.5C36.7696 45.5 45.5 36.7696 45.5 26C45.5 15.2304 36.7696 6.5 26 6.5C15.2304 6.5 6.5 15.2304 6.5 26C6.5 36.7696 15.2304 45.5 26 45.5Z" stroke="#D9D7D7" stroke-width="13"/>
<path d="M30.6513 6.54188L7.38385 8.30975L8.37276 21.325L31.6402 19.5572L30.6513 6.54188Z" fill="#D9D7D7"/>
<path d="M33.3743 42.3804L31.6402 19.5571L45.4297 18.5094L47.1638 41.3327L33.3743 42.3804Z" fill="#D9D7D7"/>
<path d="M32.7375 5.99998L25.571 14.3451L36.9507 24.1176L44.1172 15.7725L32.7375 5.99998Z" fill="#D9D7D7"/>
<path d="M10.1665 16.9339L3 25.279L28.0353 46.7786L35.2019 38.4335L10.1665 16.9339Z" fill="#D9D7D7"/>
</svg>
