<svg width="305" height="88" viewBox="0 0 305 88" fill="none" xmlns="http://www.w3.org/2000/svg">
<path d="M115.15 7.98438V12.3447H102.979V35H97.4307V7.98438H115.15ZM120.234 18.7832V42.7188H114.891V14.9238H119.845L120.234 18.7832ZM132.944 24.7393V25.1289C132.944 26.5885 132.771 27.943 132.425 29.1924C132.091 30.4417 131.596 31.5303 130.94 32.458C130.285 33.3734 129.468 34.0908 128.491 34.6104C127.526 35.1175 126.413 35.3711 125.151 35.3711C123.927 35.3711 122.863 35.1237 121.96 34.6289C121.057 34.1341 120.296 33.4414 119.678 32.5508C119.072 31.6478 118.583 30.6025 118.212 29.415C117.841 28.2275 117.556 26.9535 117.358 25.5928V24.5723C117.556 23.1126 117.841 21.7767 118.212 20.5645C118.583 19.3398 119.072 18.2822 119.678 17.3916C120.296 16.4886 121.051 15.7897 121.941 15.2949C122.844 14.8001 123.902 14.5527 125.114 14.5527C126.388 14.5527 127.508 14.7939 128.473 15.2764C129.45 15.7588 130.266 16.4515 130.922 17.3545C131.59 18.2575 132.091 19.3337 132.425 20.583C132.771 21.8324 132.944 23.2178 132.944 24.7393ZM127.582 25.1289V24.7393C127.582 23.8857 127.508 23.1003 127.359 22.3828C127.223 21.653 127.001 21.016 126.691 20.4717C126.395 19.9274 125.999 19.5068 125.504 19.21C125.021 18.9007 124.434 18.7461 123.741 18.7461C123.011 18.7461 122.387 18.8636 121.867 19.0986C121.36 19.3337 120.946 19.6738 120.624 20.1191C120.302 20.5645 120.061 21.0964 119.9 21.7148C119.74 22.3333 119.641 23.0322 119.604 23.8115V26.3906C119.665 27.306 119.839 28.1286 120.123 28.8584C120.408 29.5758 120.847 30.1449 121.44 30.5654C122.034 30.986 122.813 31.1963 123.778 31.1963C124.483 31.1963 125.077 31.0417 125.56 30.7324C126.042 30.4108 126.432 29.9717 126.729 29.415C127.038 28.8584 127.254 28.2152 127.378 27.4854C127.514 26.7555 127.582 25.9701 127.582 25.1289ZM141.999 32.7363L147.324 14.9238H153.058L144.986 38.0244C144.813 38.5316 144.578 39.0758 144.281 39.6572C143.997 40.2386 143.607 40.7891 143.112 41.3086C142.63 41.8405 142.018 42.2734 141.275 42.6074C140.546 42.9414 139.649 43.1084 138.585 43.1084C138.078 43.1084 137.663 43.0775 137.342 43.0156C137.02 42.9538 136.637 42.8672 136.191 42.7559V38.8408C136.327 38.8408 136.47 38.8408 136.618 38.8408C136.767 38.8532 136.909 38.8594 137.045 38.8594C137.75 38.8594 138.325 38.779 138.771 38.6182C139.216 38.4574 139.575 38.21 139.847 37.876C140.119 37.5544 140.335 37.1338 140.496 36.6143L141.999 32.7363ZM139.772 14.9238L144.133 29.4707L144.894 35.1299L141.257 35.5195L134.039 14.9238H139.772ZM168.699 14.9238V19.1172H158.977V14.9238H168.699ZM160.517 14.9238V35H155.173V14.9238H160.517ZM172.596 14.9238V35H167.233V14.9238H172.596ZM190.223 14.9238V19.1172H180.5V14.9238H190.223ZM182.04 14.9238V35H176.696V14.9238H182.04ZM194.119 14.9238V35H188.757V14.9238H194.119ZM209.074 30.4727V21.5293C209.074 20.8861 208.969 20.3356 208.759 19.8779C208.549 19.4079 208.221 19.043 207.775 18.7832C207.342 18.5234 206.78 18.3936 206.087 18.3936C205.493 18.3936 204.98 18.4987 204.547 18.709C204.114 18.9069 203.78 19.1976 203.545 19.5811C203.31 19.9521 203.192 20.3913 203.192 20.8984H197.849C197.849 20.0449 198.047 19.2347 198.442 18.4678C198.838 17.7008 199.413 17.0267 200.168 16.4453C200.923 15.8516 201.819 15.3877 202.858 15.0537C203.91 14.7197 205.085 14.5527 206.384 14.5527C207.942 14.5527 209.328 14.8125 210.54 15.332C211.752 15.8516 212.705 16.6309 213.397 17.6699C214.103 18.709 214.455 20.0078 214.455 21.5664V30.1572C214.455 31.2581 214.523 32.1611 214.659 32.8662C214.795 33.5589 214.993 34.165 215.253 34.6846V35H209.854C209.594 34.4557 209.396 33.7754 209.26 32.959C209.136 32.1302 209.074 31.3014 209.074 30.4727ZM209.779 22.7725L209.816 25.7969H206.829C206.124 25.7969 205.512 25.8773 204.992 26.0381C204.473 26.1989 204.046 26.4277 203.712 26.7246C203.378 27.0091 203.131 27.3431 202.97 27.7266C202.821 28.11 202.747 28.5306 202.747 28.9883C202.747 29.446 202.852 29.8604 203.062 30.2314C203.273 30.5902 203.576 30.8747 203.972 31.085C204.368 31.2829 204.831 31.3818 205.363 31.3818C206.167 31.3818 206.866 31.221 207.46 30.8994C208.054 30.5778 208.511 30.182 208.833 29.7119C209.167 29.2419 209.34 28.7965 209.353 28.376L210.763 30.6396C210.565 31.1468 210.293 31.6725 209.946 32.2168C209.612 32.7611 209.186 33.2744 208.666 33.7568C208.146 34.2269 207.522 34.6165 206.792 34.9258C206.062 35.2227 205.196 35.3711 204.194 35.3711C202.92 35.3711 201.764 35.1175 200.725 34.6104C199.698 34.0908 198.882 33.3796 198.275 32.4766C197.682 31.5612 197.385 30.5221 197.385 29.3594C197.385 28.3079 197.583 27.374 197.979 26.5576C198.374 25.7412 198.956 25.0547 199.723 24.498C200.502 23.929 201.473 23.5023 202.636 23.2178C203.799 22.9209 205.147 22.7725 206.681 22.7725H209.779ZM110.586 59.9238V64.1172H100.863V59.9238H110.586ZM102.403 59.9238V80H97.0596V59.9238H102.403ZM114.482 59.9238V80H109.12V59.9238H114.482ZM123.945 63.7832V87.7188H118.602V59.9238H123.556L123.945 63.7832ZM136.655 69.7393V70.1289C136.655 71.5885 136.482 72.943 136.136 74.1924C135.802 75.4417 135.307 76.5303 134.651 77.458C133.996 78.3734 133.179 79.0908 132.202 79.6104C131.237 80.1175 130.124 80.3711 128.862 80.3711C127.638 80.3711 126.574 80.1237 125.671 79.6289C124.768 79.1341 124.007 78.4414 123.389 77.5508C122.783 76.6478 122.294 75.6025 121.923 74.415C121.552 73.2275 121.267 71.9535 121.069 70.5928V69.5723C121.267 68.1126 121.552 66.7767 121.923 65.5645C122.294 64.3398 122.783 63.2822 123.389 62.3916C124.007 61.4886 124.762 60.7897 125.652 60.2949C126.555 59.8001 127.613 59.5527 128.825 59.5527C130.099 59.5527 131.219 59.7939 132.184 60.2764C133.161 60.7588 133.977 61.4515 134.633 62.3545C135.301 63.2575 135.802 64.3337 136.136 65.583C136.482 66.8324 136.655 68.2178 136.655 69.7393ZM131.293 70.1289V69.7393C131.293 68.8857 131.219 68.1003 131.07 67.3828C130.934 66.653 130.712 66.016 130.402 65.4717C130.105 64.9274 129.71 64.5068 129.215 64.21C128.732 63.9007 128.145 63.7461 127.452 63.7461C126.722 63.7461 126.098 63.8636 125.578 64.0986C125.071 64.3337 124.657 64.6738 124.335 65.1191C124.013 65.5645 123.772 66.0964 123.611 66.7148C123.451 67.3333 123.352 68.0322 123.314 68.8115V71.3906C123.376 72.306 123.549 73.1286 123.834 73.8584C124.118 74.5758 124.558 75.1449 125.151 75.5654C125.745 75.986 126.524 76.1963 127.489 76.1963C128.194 76.1963 128.788 76.0417 129.271 75.7324C129.753 75.4108 130.143 74.9717 130.439 74.415C130.749 73.8584 130.965 73.2152 131.089 72.4854C131.225 71.7555 131.293 70.9701 131.293 70.1289ZM150.812 75.4727V66.5293C150.812 65.8861 150.707 65.3356 150.497 64.8779C150.287 64.4079 149.959 64.043 149.514 63.7832C149.081 63.5234 148.518 63.3936 147.825 63.3936C147.231 63.3936 146.718 63.4987 146.285 63.709C145.852 63.9069 145.518 64.1976 145.283 64.5811C145.048 64.9521 144.931 65.3913 144.931 65.8984H139.587C139.587 65.0449 139.785 64.2347 140.181 63.4678C140.576 62.7008 141.152 62.0267 141.906 61.4453C142.661 60.8516 143.558 60.3877 144.597 60.0537C145.648 59.7197 146.823 59.5527 148.122 59.5527C149.681 59.5527 151.066 59.8125 152.278 60.332C153.491 60.8516 154.443 61.6309 155.136 62.6699C155.841 63.709 156.193 65.0078 156.193 66.5664V75.1572C156.193 76.2581 156.261 77.1611 156.397 77.8662C156.534 78.5589 156.731 79.165 156.991 79.6846V80H151.592C151.332 79.4557 151.134 78.7754 150.998 77.959C150.874 77.1302 150.812 76.3014 150.812 75.4727ZM151.518 67.7725L151.555 70.7969H148.567C147.862 70.7969 147.25 70.8773 146.73 71.0381C146.211 71.1989 145.784 71.4277 145.45 71.7246C145.116 72.0091 144.869 72.3431 144.708 72.7266C144.56 73.11 144.485 73.5306 144.485 73.9883C144.485 74.446 144.59 74.8604 144.801 75.2314C145.011 75.5902 145.314 75.8747 145.71 76.085C146.106 76.2829 146.57 76.3818 147.102 76.3818C147.906 76.3818 148.604 76.221 149.198 75.8994C149.792 75.5778 150.25 75.182 150.571 74.7119C150.905 74.2419 151.078 73.7965 151.091 73.376L152.501 75.6396C152.303 76.1468 152.031 76.6725 151.685 77.2168C151.351 77.7611 150.924 78.2744 150.404 78.7568C149.885 79.2269 149.26 79.6165 148.53 79.9258C147.8 80.2227 146.935 80.3711 145.933 80.3711C144.659 80.3711 143.502 80.1175 142.463 79.6104C141.436 79.0908 140.62 78.3796 140.014 77.4766C139.42 76.5612 139.123 75.5221 139.123 74.3594C139.123 73.3079 139.321 72.374 139.717 71.5576C140.113 70.7412 140.694 70.0547 141.461 69.498C142.24 68.929 143.211 68.5023 144.374 68.2178C145.537 67.9209 146.885 67.7725 148.419 67.7725H151.518ZM170.313 71.6133H164.023L163.986 68.1064H169.182C169.874 68.1064 170.437 68.0384 170.87 67.9023C171.303 67.7539 171.618 67.5374 171.816 67.2529C172.027 66.9561 172.132 66.5973 172.132 66.1768C172.132 65.8057 172.064 65.4902 171.928 65.2305C171.804 64.9583 171.612 64.7357 171.353 64.5625C171.093 64.3893 170.765 64.2656 170.369 64.1914C169.986 64.1048 169.534 64.0615 169.015 64.0615H166.009V80H160.665V59.9238H169.015C170.326 59.9238 171.501 60.0413 172.54 60.2764C173.579 60.499 174.464 60.8392 175.193 61.2969C175.936 61.7546 176.498 62.3359 176.882 63.041C177.278 63.7337 177.476 64.5563 177.476 65.5088C177.476 66.1273 177.333 66.7087 177.049 67.2529C176.777 67.7972 176.368 68.2796 175.824 68.7002C175.28 69.1208 174.606 69.4671 173.802 69.7393C173.01 69.999 172.095 70.1598 171.056 70.2217L170.313 71.6133ZM170.313 80H162.706L164.543 75.8623H170.313C170.969 75.8623 171.507 75.7819 171.928 75.6211C172.348 75.4603 172.658 75.2253 172.855 74.916C173.066 74.5944 173.171 74.2109 173.171 73.7656C173.171 73.3327 173.078 72.9554 172.893 72.6338C172.707 72.3122 172.404 72.0648 171.983 71.8916C171.575 71.7061 171.019 71.6133 170.313 71.6133H165.322L165.359 68.1064H171.037L172.336 69.5166C173.746 69.6032 174.909 69.8691 175.824 70.3145C176.74 70.7598 177.414 71.3288 177.847 72.0215C178.292 72.7018 178.515 73.4502 178.515 74.2666C178.515 75.2191 178.335 76.054 177.977 76.7715C177.618 77.4889 177.086 78.0889 176.381 78.5713C175.688 79.0413 174.835 79.4001 173.82 79.6475C172.806 79.8825 171.637 80 170.313 80ZM180.945 70.166V69.7764C180.945 68.3044 181.156 66.9499 181.576 65.7129C181.997 64.4635 182.609 63.3812 183.413 62.4658C184.217 61.5505 185.207 60.8392 186.382 60.332C187.557 59.8125 188.905 59.5527 190.427 59.5527C191.948 59.5527 193.303 59.8125 194.49 60.332C195.678 60.8392 196.674 61.5505 197.478 62.4658C198.294 63.3812 198.912 64.4635 199.333 65.7129C199.754 66.9499 199.964 68.3044 199.964 69.7764V70.166C199.964 71.6257 199.754 72.9801 199.333 74.2295C198.912 75.4665 198.294 76.5488 197.478 77.4766C196.674 78.3919 195.684 79.1032 194.509 79.6104C193.334 80.1175 191.985 80.3711 190.464 80.3711C188.942 80.3711 187.588 80.1175 186.4 79.6104C185.225 79.1032 184.229 78.3919 183.413 77.4766C182.609 76.5488 181.997 75.4665 181.576 74.2295C181.156 72.9801 180.945 71.6257 180.945 70.166ZM186.289 69.7764V70.166C186.289 71.0072 186.363 71.7926 186.512 72.5225C186.66 73.2523 186.895 73.8955 187.217 74.4521C187.551 74.9964 187.984 75.4232 188.516 75.7324C189.048 76.0417 189.697 76.1963 190.464 76.1963C191.206 76.1963 191.843 76.0417 192.375 75.7324C192.907 75.4232 193.334 74.9964 193.655 74.4521C193.977 73.8955 194.212 73.2523 194.36 72.5225C194.521 71.7926 194.602 71.0072 194.602 70.166V69.7764C194.602 68.96 194.521 68.193 194.36 67.4756C194.212 66.7458 193.971 66.1025 193.637 65.5459C193.315 64.9769 192.888 64.5316 192.356 64.21C191.825 63.8883 191.181 63.7275 190.427 63.7275C189.672 63.7275 189.029 63.8883 188.497 64.21C187.978 64.5316 187.551 64.9769 187.217 65.5459C186.895 66.1025 186.66 66.7458 186.512 67.4756C186.363 68.193 186.289 68.96 186.289 69.7764ZM213.249 71.6133H206.959L206.922 68.1064H212.117C212.81 68.1064 213.373 68.0384 213.806 67.9023C214.239 67.7539 214.554 67.5374 214.752 67.2529C214.962 66.9561 215.067 66.5973 215.067 66.1768C215.067 65.8057 214.999 65.4902 214.863 65.2305C214.74 64.9583 214.548 64.7357 214.288 64.5625C214.028 64.3893 213.701 64.2656 213.305 64.1914C212.921 64.1048 212.47 64.0615 211.95 64.0615H208.944V80H203.601V59.9238H211.95C213.261 59.9238 214.437 60.0413 215.476 60.2764C216.515 60.499 217.399 60.8392 218.129 61.2969C218.871 61.7546 219.434 62.3359 219.817 63.041C220.213 63.7337 220.411 64.5563 220.411 65.5088C220.411 66.1273 220.269 66.7087 219.984 67.2529C219.712 67.7972 219.304 68.2796 218.76 68.7002C218.215 69.1208 217.541 69.4671 216.737 69.7393C215.946 69.999 215.03 70.1598 213.991 70.2217L213.249 71.6133ZM213.249 80H205.642L207.479 75.8623H213.249C213.905 75.8623 214.443 75.7819 214.863 75.6211C215.284 75.4603 215.593 75.2253 215.791 74.916C216.001 74.5944 216.106 74.2109 216.106 73.7656C216.106 73.3327 216.014 72.9554 215.828 72.6338C215.643 72.3122 215.34 72.0648 214.919 71.8916C214.511 71.7061 213.954 71.6133 213.249 71.6133H208.258L208.295 68.1064H213.973L215.271 69.5166C216.682 69.6032 217.844 69.8691 218.76 70.3145C219.675 70.7598 220.349 71.3288 220.782 72.0215C221.228 72.7018 221.45 73.4502 221.45 74.2666C221.45 75.2191 221.271 76.054 220.912 76.7715C220.553 77.4889 220.021 78.0889 219.316 78.5713C218.624 79.0413 217.77 79.4001 216.756 79.6475C215.742 79.8825 214.573 80 213.249 80ZM233.975 80.3711C232.416 80.3711 231.018 80.1237 229.781 79.6289C228.544 79.1217 227.493 78.4229 226.627 77.5322C225.773 76.6416 225.118 75.6087 224.66 74.4336C224.202 73.2461 223.974 71.9844 223.974 70.6484V69.9062C223.974 68.3848 224.19 66.9932 224.623 65.7314C225.056 64.4697 225.674 63.375 226.479 62.4473C227.295 61.5195 228.285 60.8083 229.447 60.3135C230.61 59.8063 231.921 59.5527 233.381 59.5527C234.803 59.5527 236.065 59.7878 237.166 60.2578C238.267 60.7279 239.188 61.3958 239.931 62.2617C240.685 63.1276 241.254 64.1667 241.638 65.3789C242.021 66.5788 242.213 67.9147 242.213 69.3867V71.6133H226.256V68.0508H236.962V67.6426C236.962 66.9004 236.826 66.2386 236.554 65.6572C236.294 65.0635 235.898 64.5934 235.366 64.2471C234.834 63.9007 234.154 63.7275 233.325 63.7275C232.62 63.7275 232.014 63.8822 231.507 64.1914C231 64.5007 230.585 64.9336 230.264 65.4902C229.954 66.0469 229.719 66.7025 229.559 67.457C229.41 68.1992 229.336 69.0156 229.336 69.9062V70.6484C229.336 71.4525 229.447 72.1947 229.67 72.875C229.905 73.5553 230.233 74.1429 230.653 74.6377C231.086 75.1325 231.606 75.516 232.212 75.7881C232.83 76.0602 233.529 76.1963 234.309 76.1963C235.273 76.1963 236.17 76.0107 236.999 75.6396C237.84 75.2562 238.564 74.681 239.17 73.9141L241.768 76.7344C241.347 77.3405 240.772 77.9219 240.042 78.4785C239.325 79.0352 238.459 79.4928 237.444 79.8516C236.43 80.1979 235.273 80.3711 233.975 80.3711ZM248.874 59.9238H254.218L254.051 66.6406C254.001 68.793 253.754 70.6423 253.309 72.1885C252.863 73.7347 252.27 75.0335 251.527 76.085C250.785 77.1364 249.938 77.9775 248.985 78.6084C248.045 79.2269 247.056 79.6908 246.017 80H245.015L244.959 75.8809L245.516 75.8252C246.146 75.1696 246.666 74.5326 247.074 73.9141C247.482 73.2832 247.798 72.6214 248.021 71.9287C248.243 71.236 248.404 70.4629 248.503 69.6094C248.614 68.7559 248.682 67.7663 248.707 66.6406L248.874 59.9238ZM250.321 59.9238H263.625V80H258.3V64.21H250.321V59.9238ZM243.79 75.8252H266.501V86.0303H261.157V80H249.264V86.0303H243.79V75.8252Z" fill="white"/>
<path d="M18.0323 76.8333C18.0323 75.2992 19.2743 74.0556 20.8065 74.0556H65.1936C66.7257 74.0556 67.9677 75.2992 67.9677 76.8333V81H18.0323V76.8333Z" fill="white"/>
<path d="M31.9032 69.8889C31.9032 68.3547 33.1452 67.1111 34.6774 67.1111H51.3226C52.8548 67.1111 54.0968 68.3547 54.0968 69.8889V74.0556H31.9032V69.8889Z" fill="white"/>
<path d="M40.2258 24.0555C40.2258 22.5214 41.4678 21.2778 43 21.2778C44.5322 21.2778 45.7742 22.5214 45.7742 24.0555V67.1111H40.2258V24.0555Z" fill="white"/>
<path d="M43 19.8889C46.8304 19.8889 49.9355 16.7798 49.9355 12.9444C49.9355 9.10913 46.8304 6 43 6C39.1696 6 36.0645 9.10913 36.0645 12.9444C36.0645 16.7798 39.1696 19.8889 43 19.8889Z" fill="white"/>
<path d="M72.9493 18.9185L54.701 12.2681C53.6212 11.8746 52.4273 12.432 52.0343 13.5133C51.6412 14.5945 52.198 15.79 53.2778 16.1835L71.526 22.8339C72.6058 23.2274 73.7998 22.6699 74.1928 21.5887C74.5858 20.5075 74.0291 19.312 72.9493 18.9185Z" fill="white"/>
<path d="M31.3002 12.2681L13.0519 18.9185C11.9721 19.312 11.4154 20.5075 11.8084 21.5887C12.2014 22.6699 13.3954 23.2274 14.4752 22.8339L32.7234 16.1835C33.8032 15.79 34.36 14.5945 33.967 13.5132C33.5739 12.432 32.38 11.8746 31.3002 12.2681Z" fill="white"/>
<path d="M25.4783 51.4683C24.4956 56.9947 19.6726 61.1906 13.871 61.1906C8.06931 61.1906 3.24636 56.9947 2.26364 51.4683H13.871H21.0785H25.4783Z" stroke="white" stroke-width="3"/>
<path d="M12.9895 25.3628C13.9152 24.9306 15.0156 25.3315 15.4473 26.2585L26.4808 49.9506L23.9665 51.1244L12.5422 26.5932C12.3263 26.1297 12.5266 25.5789 12.9895 25.3628Z" fill="white"/>
<path d="M3.90138 50.9246L15.2815 26.4882C15.6053 25.7931 15.305 24.9667 14.6106 24.6425C13.9163 24.3183 13.091 24.6192 12.7672 25.3143L1.38712 49.7507L3.90138 50.9246Z" fill="white"/>
<path d="M83.7364 51.4683C82.7536 56.9947 77.9307 61.1906 72.129 61.1906C66.3274 61.1906 61.5044 56.9947 60.5217 51.4683H72.129H79.3365H83.7364Z" stroke="white" stroke-width="3"/>
<path d="M71.2475 25.3628C72.1733 24.9306 73.2737 25.3315 73.7053 26.2585L84.7389 49.9506L82.2246 51.1244L70.8002 26.5932C70.5844 26.1297 70.7847 25.5789 71.2475 25.3628Z" fill="white"/>
<path d="M62.1594 50.9246L73.5396 26.4882C73.8633 25.7931 73.563 24.9667 72.8686 24.6425C72.1744 24.3183 71.3491 24.6192 71.0253 25.3143L59.6452 49.7507L62.1594 50.9246Z" fill="white"/>
</svg>
