<?xml version="1.0" standalone="no"?>
<!DOCTYPE svg PUBLIC "-//W3C//DTD SVG 20010904//EN"
 "http://www.w3.org/TR/2001/REC-SVG-20010904/DTD/svg10.dtd">
<svg version="1.0" xmlns="http://www.w3.org/2000/svg"
 width="512.000000pt" height="512.000000pt" viewBox="0 0 512.000000 512.000000"
 preserveAspectRatio="xMidYMid meet">

<g transform="translate(0.000000,512.000000) scale(0.100000,-0.100000)"
fill="#000000" stroke="none">
<path d="M2321 5110 c-868 -84 -1644 -610 -2037 -1382 -139 -273 -221 -536
-266 -853 -20 -140 -17 -504 6 -660 39 -278 121 -541 247 -794 249 -502 647
-900 1150 -1150 815 -406 1779 -350 2539 147 297 194 579 482 771 788 74 116
184 342 234 478 51 138 110 376 131 531 23 157 26 521 6 660 -59 415 -191 769
-410 1099 -92 140 -185 254 -315 385 -399 403 -895 653 -1462 737 -122 18
-466 26 -594 14z m405 -969 c391 -81 664 -437 640 -836 -7 -125 -26 -196 -81
-310 -79 -163 -207 -291 -370 -370 -106 -51 -195 -74 -314 -82 -338 -22 -668
192 -792 512 -233 601 286 1216 917 1086z m-873 -1602 c21 -6 74 -33 117 -60
262 -166 575 -214 876 -135 97 26 229 84 297 130 129 88 218 96 299 28 37 -31
78 -114 78 -160 0 -18 -6 -47 -14 -65 -30 -72 -209 -207 -353 -267 -89 -37
-269 -85 -360 -95 -35 -4 -63 -10 -63 -13 0 -4 141 -148 314 -322 262 -263
316 -322 325 -355 14 -53 14 -63 -5 -118 -33 -98 -148 -163 -245 -137 -38 10
-77 44 -296 262 -223 222 -253 249 -271 239 -11 -6 -122 -114 -248 -241 -247
-250 -282 -276 -359 -268 -128 15 -222 149 -185 264 10 30 83 110 329 358
l316 319 -107 18 c-224 36 -394 102 -537 209 -93 70 -125 104 -145 152 -29 69
-15 134 45 202 54 61 111 78 192 55z"/>
<path d="M2480 3740 c-103 -22 -210 -99 -264 -193 -40 -67 -59 -175 -47 -255
26 -169 145 -293 312 -328 133 -28 261 12 357 110 142 144 156 353 36 517 -38
53 -118 111 -182 134 -57 19 -156 26 -212 15z"/>
</g>
</svg>
