<svg width="80" height="80" viewBox="0 0 80 80" fill="none" xmlns="http://www.w3.org/2000/svg">
<path d="M10 80C7.34784 80 4.8043 78.9464 2.92893 77.0711C1.05357 75.1957 0 72.6522 0 70V10C0 7.34784 1.05357 4.8043 2.92893 2.92893C4.8043 1.05357 7.34784 0 10 0L70 0C72.6522 0 75.1957 1.05357 77.0711 2.92893C78.9464 4.8043 80 7.34784 80 10V70C80 72.6522 78.9464 75.1957 77.0711 77.0711C75.1957 78.9464 72.6522 80 70 80H10ZM42.5 57.5V28.535L53.23 39.27C53.4624 39.5024 53.7384 39.6868 54.0421 39.8126C54.3458 39.9384 54.6713 40.0032 55 40.0032C55.3287 40.0032 55.6542 39.9384 55.9579 39.8126C56.2616 39.6868 56.5376 39.5024 56.77 39.27C57.0024 39.0376 57.1868 38.7616 57.3126 38.4579C57.4384 38.1542 57.5032 37.8287 57.5032 37.5C57.5032 37.1713 57.4384 36.8458 57.3126 36.5421C57.1868 36.2384 57.0024 35.9624 56.77 35.73L41.77 20.73C41.5378 20.4972 41.2619 20.3125 40.9582 20.1864C40.6544 20.0604 40.3288 19.9955 40 19.9955C39.6712 19.9955 39.3456 20.0604 39.0418 20.1864C38.7381 20.3125 38.4622 20.4972 38.23 20.73L23.23 35.73C22.7606 36.1994 22.4968 36.8361 22.4968 37.5C22.4968 38.1639 22.7606 38.8006 23.23 39.27C23.6994 39.7394 24.3361 40.0032 25 40.0032C25.6639 40.0032 26.3006 39.7394 26.77 39.27L37.5 28.535V57.5C37.5 58.163 37.7634 58.7989 38.2322 59.2678C38.7011 59.7366 39.337 60 40 60C40.663 60 41.2989 59.7366 41.7678 59.2678C42.2366 58.7989 42.5 58.163 42.5 57.5Z" fill="#DAD2B9"/>
</svg>
