<svg width="50" height="50" viewBox="0 0 50 50" fill="none" xmlns="http://www.w3.org/2000/svg">
<g clip-path="url(#clip0_9_103)">
<path d="M32.5114 25C32.5114 27.072 31.6958 29.0591 30.2441 30.5243C28.7924 31.9894 26.8235 32.8125 24.7706 32.8125C22.7176 32.8125 20.7487 31.9894 19.297 30.5243C17.8453 29.0591 17.0298 27.072 17.0298 25C17.0298 24.5547 17.0762 24.1198 17.1562 23.6979H14.4495V34.1068C14.4495 34.8307 15.0301 35.4167 15.7474 35.4167H33.7963C34.1401 35.416 34.4696 35.2777 34.7124 35.0321C34.9552 34.7865 35.0916 34.4537 35.0916 34.1068V23.6979H32.3849C32.4649 24.1198 32.5114 24.5547 32.5114 25ZM24.7706 30.2083C25.4484 30.2082 26.1196 30.0732 26.7458 29.8113C27.372 29.5493 27.9409 29.1654 28.4201 28.6815C28.8993 28.1977 29.2794 27.6233 29.5387 26.9911C29.7979 26.359 29.9313 25.6815 29.9311 24.9974C29.9309 24.3133 29.7972 23.6358 29.5377 23.0039C29.2781 22.3719 28.8978 21.7976 28.4183 21.314C27.9389 20.8304 27.3697 20.4468 26.7434 20.1851C26.1171 19.9235 25.4458 19.7889 24.768 19.7891C23.399 19.7894 22.0862 20.3386 21.1184 21.3158C20.1506 22.2931 19.6071 23.6183 19.6074 25C19.6078 26.3817 20.1519 27.7066 21.1202 28.6834C22.0885 29.6601 23.4016 30.2087 24.7706 30.2083ZM30.9632 19.5312H34.0569C34.2625 19.5312 34.4596 19.449 34.6052 19.3026C34.7508 19.1561 34.8329 18.9574 34.8336 18.75V15.6276C34.8336 15.4197 34.7518 15.2203 34.6061 15.0733C34.4605 14.9263 34.2629 14.8437 34.0569 14.8437H30.9632C30.7572 14.8437 30.5597 14.9263 30.414 15.0733C30.2684 15.2203 30.1865 15.4197 30.1865 15.6276V18.75C30.1891 19.1797 30.5375 19.5312 30.9632 19.5312ZM24.7706 0C18.201 0 11.9005 2.63392 7.25513 7.32233C2.60975 12.0107 0 18.3696 0 25C0 31.6304 2.60975 37.9893 7.25513 42.6777C11.9005 47.3661 18.201 50 24.7706 50C28.0235 50 31.2445 49.3534 34.2498 48.097C37.2551 46.8406 39.9858 44.9991 42.286 42.6777C44.5861 40.3562 46.4107 37.6002 47.6556 34.5671C48.9004 31.5339 49.5411 28.283 49.5411 25C49.5411 21.717 48.9004 18.4661 47.6556 15.4329C46.4107 12.3998 44.5861 9.64379 42.286 7.32233C39.9858 5.00086 37.2551 3.15938 34.2498 1.90301C31.2445 0.646644 28.0235 0 24.7706 0ZM37.6719 35.1276C37.6719 36.7188 36.3818 38.0208 34.8052 38.0208H14.7359C13.1594 38.0208 11.8692 36.7188 11.8692 35.1276V14.8724C11.8692 13.2812 13.1594 11.9792 14.7359 11.9792H34.8052C36.3818 11.9792 37.6719 13.2812 37.6719 14.8724V35.1276Z" fill="white"/>
</g>
<defs>
<clipPath id="clip0_9_103">
<rect width="49.5411" height="50" fill="white"/>
</clipPath>
</defs>
</svg>
