<svg width="50" height="50" viewBox="0 0 50 50" fill="none" xmlns="http://www.w3.org/2000/svg">
<g clip-path="url(#clip0_9_99)">
<path fill-rule="evenodd" clip-rule="evenodd" d="M49.7705 25C49.7705 38.8062 38.6795 50 25 50C11.3204 50 0.229431 38.8062 0.229431 25C0.229431 11.1937 11.3204 0 25 0C38.6795 0 49.7705 11.1937 49.7705 25ZM25.8876 18.4562C23.4787 19.4667 18.6629 21.5604 11.4422 24.7354C10.2698 25.2062 9.65463 25.6667 9.59889 26.1167C9.50394 26.8792 10.4493 27.1792 11.7333 27.5854C11.9087 27.6417 12.0904 27.6979 12.2762 27.7604C13.5415 28.175 15.2425 28.6604 16.1259 28.6792C16.9289 28.6958 17.8248 28.3625 18.8135 27.6792C25.5594 23.0812 29.0417 20.7583 29.2605 20.7083C29.4153 20.6729 29.63 20.6271 29.7745 20.7583C29.919 20.8875 29.9046 21.1333 29.8901 21.2C29.7952 21.6021 26.092 25.0792 24.1722 26.8792C23.5736 27.4396 23.1505 27.8375 23.0638 27.9292C22.8697 28.1312 22.6716 28.325 22.4816 28.5104C21.305 29.6521 20.4257 30.5104 22.5312 31.9104C23.5427 32.5833 24.3518 33.1396 25.1589 33.6937C26.0403 34.3 26.9197 34.9042 28.0592 35.6583C28.3481 35.85 28.6247 36.0479 28.8952 36.2417C29.9211 36.9812 30.8438 37.6437 31.9832 37.5396C32.6438 37.4771 33.3291 36.85 33.6759 34.9771C34.4954 30.5479 36.1096 20.9562 36.4832 17.0021C36.5059 16.6738 36.4921 16.3439 36.4419 16.0187C36.4119 15.7561 36.2852 15.5144 36.0869 15.3417C35.7917 15.0979 35.3334 15.0458 35.127 15.05C34.1961 15.0667 32.7676 15.5687 25.8876 18.4562Z" fill="white"/>
</g>
<defs>
<clipPath id="clip0_9_99">
<rect width="49.5411" height="50" fill="white" transform="translate(0.229431)"/>
</clipPath>
</defs>
</svg>
