<svg width="50" height="50" viewBox="0 0 50 50" fill="none" xmlns="http://www.w3.org/2000/svg">
<g clip-path="url(#clip0_9_101)">
<path d="M25.2294 0C11.5488 0 0.458862 11.1927 0.458862 25C0.458862 38.8073 11.5488 50 25.2294 50C38.91 50 50 38.8073 50 25C50 11.1927 38.91 0 25.2294 0ZM34.7558 28.2057C34.7558 28.2057 36.9464 30.388 37.4857 31.401C37.5012 31.4219 37.5089 31.4427 37.5141 31.4531C37.7334 31.8255 37.785 32.1146 37.6766 32.3307C37.496 32.6901 36.8767 32.8672 36.6652 32.8828H32.7948C32.5264 32.8828 31.9639 32.8125 31.2827 32.3385C30.7589 31.9687 30.2429 31.362 29.7397 30.7708C28.9889 29.8906 28.3386 29.1302 27.6833 29.1302C27.6 29.1301 27.5173 29.1432 27.4381 29.1693C26.9427 29.3307 26.308 30.0443 26.308 31.9453C26.308 32.5391 25.8435 32.8802 25.5158 32.8802H23.7432C23.1394 32.8802 19.9941 32.6667 17.2074 29.7005C13.7963 26.0677 10.7257 18.7812 10.6999 18.7135C10.5064 18.2422 10.9064 17.9896 11.3424 17.9896H15.2515C15.7727 17.9896 15.943 18.3099 16.0617 18.5937C16.2011 18.9245 16.712 20.2396 17.5505 21.7188C18.9103 24.1302 19.7438 25.1094 20.4121 25.1094C20.5374 25.1079 20.6604 25.0757 20.7707 25.0156C21.6428 24.526 21.4803 21.388 21.4416 20.737C21.4416 20.6146 21.439 19.3333 20.9926 18.7187C20.6727 18.2734 20.1282 18.1042 19.798 18.0417C19.9316 17.8555 20.1078 17.7045 20.3114 17.6016C20.9101 17.2995 21.9886 17.2552 23.0594 17.2552H23.6555C24.8166 17.2708 25.1159 17.3464 25.5365 17.4531C26.388 17.6589 26.406 18.2135 26.3312 20.112C26.308 20.651 26.2847 21.2604 26.2847 21.9792C26.2847 22.1354 26.277 22.3021 26.277 22.4792C26.2512 23.4453 26.2202 24.5417 26.8963 24.9922C26.9844 25.048 27.0863 25.0778 27.1904 25.0781C27.4252 25.0781 28.1322 25.0781 30.0468 21.763C30.6372 20.696 31.1503 19.5872 31.582 18.4453C31.6207 18.3776 31.7343 18.1693 31.8684 18.0885C31.9675 18.0376 32.0773 18.0117 32.1884 18.013H36.7839C37.2844 18.013 37.6276 18.0885 37.6921 18.2839C37.8056 18.5937 37.6715 19.5391 35.5737 22.4062L34.6371 23.6536C32.7354 26.1693 32.7354 26.2969 34.7558 28.2057Z" fill="white"/>
</g>
<defs>
<clipPath id="clip0_9_101">
<rect width="49.5411" height="50" fill="white" transform="translate(0.458862)"/>
</clipPath>
</defs>
</svg>
