<svg width="60" height="60" viewBox="0 0 60 60" fill="none" xmlns="http://www.w3.org/2000/svg">
<g clip-path="url(#clip0_32_84)">
<mask id="mask0_32_84" style="mask-type:luminance" maskUnits="userSpaceOnUse" x="0" y="0" width="60" height="60">
<path d="M0 0H60V60H0V0Z" fill="white"/>
</mask>
<g mask="url(#mask0_32_84)">
<path d="M28.035 0.0153125C27.905 0.0278125 27.495 0.0703125 27.125 0.0978125C18.605 0.867813 10.625 5.46531 5.565 12.5328C2.77075 16.4121 0.9543 20.9087 0.27 25.6403C0.03 27.2903 0 27.7753 0 30.0103C0 32.2453 0.03 32.7328 0.27 34.3803C1.9 45.6478 9.92 55.1128 20.7925 58.6203C22.74 59.2478 24.7925 59.6753 27.125 59.9353C28.035 60.0353 31.965 60.0353 32.875 59.9353C36.9025 59.4878 40.3175 58.4903 43.6825 56.7728C44.2 56.5103 44.3 56.4378 44.23 56.3803C42.584 54.2096 40.9548 52.0262 39.3425 49.8303L34.545 43.3478L28.535 34.4503C26.5353 31.4743 24.5169 28.5109 22.48 25.5603C22.4575 25.5528 22.435 29.5053 22.4225 34.3353C22.405 42.7853 22.3975 43.1253 22.2925 43.3253C22.1901 43.5587 22.0074 43.7477 21.7775 43.8578C21.59 43.9528 21.4275 43.9703 20.54 43.9703H19.525L19.255 43.8003C19.0879 43.6948 18.9523 43.5463 18.8625 43.3703L18.7375 43.1078L18.75 31.3478L18.7675 19.5828L18.95 19.3528C19.0729 19.209 19.2201 19.088 19.385 18.9953C19.625 18.8778 19.7175 18.8678 20.735 18.8678C21.93 18.8678 22.13 18.9128 22.44 19.2528C22.5275 19.3478 25.7825 24.2528 29.6775 30.1578L41.5125 48.0878L46.2625 55.2828L46.505 55.1253C48.791 53.6055 50.8635 51.7869 52.6675 49.7178C56.4479 45.391 58.9001 40.0657 59.73 34.3803C59.97 32.7303 60 32.2453 60 30.0103C60 27.7753 59.97 27.2903 59.73 25.6403C58.1 14.3753 50.08 4.90781 39.2075 1.40031C37.1754 0.754236 35.0831 0.316156 32.9625 0.0928125C32.3975 0.0328125 28.5225 -0.0321875 28.0375 0.0178125L28.035 0.0153125ZM40.3175 18.1653C40.4569 18.2355 40.581 18.3326 40.6827 18.4511C40.7844 18.5695 40.8617 18.7069 40.91 18.8553C40.955 19.0053 40.9675 22.2678 40.955 29.6178L40.9375 40.1628L39.08 37.3128L37.215 34.4628V26.7978C37.215 21.8403 37.2375 19.0553 37.2725 18.9203C37.3141 18.7642 37.387 18.6181 37.4867 18.4909C37.5864 18.3637 37.7108 18.258 37.8525 18.1803C38.095 18.0553 38.1825 18.0453 39.1025 18.0453C39.97 18.0453 40.1225 18.0603 40.3175 18.1653Z" fill="#699BF7"/>
</g>
</g>
<defs>
<clipPath id="clip0_32_84">
<rect width="60" height="60" fill="white"/>
</clipPath>
</defs>
</svg>
