<svg width="60" height="60" viewBox="0 0 60 60" fill="none" xmlns="http://www.w3.org/2000/svg">
<path d="M5.93799 6.59436H54.0617V53.4056H5.93799V6.59436Z" fill="#0C0824"/>
<path d="M5.93813 6.59438H54.0619V53.4056H5.93813V6.59438ZM3.75 55.5938H56.25V4.40625H3.75V55.5938ZM39.1444 25.4063C37.4156 25.4063 36.825 26.2819 36.825 27.0037C36.825 27.7913 37.2188 28.3388 39.5381 29.5406C42.9731 31.2038 44.0381 32.7994 44.0381 35.1413C44.0381 38.6419 41.37 40.5225 37.7606 40.5225C36.2116 40.5799 34.672 40.2581 33.2756 39.585C33.1219 39.5194 33.1012 39.4106 33.1012 39.2344V36.015C33.1012 35.7956 33.21 35.73 33.3638 35.8406C34.6751 36.6839 36.2015 37.1317 37.7606 37.1306C39.4894 37.1306 40.2113 36.4087 40.2113 35.4244C40.2113 34.6369 39.7088 33.9375 37.4981 32.7994C34.3913 31.3125 33.1012 29.7994 33.1012 27.2869C33.1012 24.465 35.31 22.125 39.1388 22.125C40.4715 22.0678 41.8023 22.2762 43.0537 22.7381C43.1258 22.7849 43.1841 22.85 43.2227 22.9268C43.2612 23.0036 43.2787 23.0893 43.2731 23.175V26.175C43.2731 26.3494 43.1644 26.46 42.945 26.3944C41.7884 25.7286 40.4731 25.3884 39.1388 25.41L39.1444 25.4063ZM20.3306 28.0087C20.8331 28.0519 21.2269 28.0519 22.1025 28.0519C24.6619 28.0519 27.0675 27.1556 27.0675 23.6775C27.0675 20.8988 25.3388 19.5 22.4306 19.5C21.555 19.5 20.7244 19.5431 20.3306 19.5656V28.0087ZM16.4362 16.3837C16.4362 16.23 16.7419 16.1212 16.9181 16.1212C18.7984 16.0444 20.6801 16.0082 22.5619 16.0125C28.6219 16.0125 30.9844 19.3369 30.9844 23.5819C30.9844 29.1375 26.9587 31.5225 22.0162 31.5225C21.1856 31.5225 20.9006 31.4794 20.31 31.4794V39.8794C20.31 40.0537 20.2444 40.1419 20.0475 40.1419H16.7006C16.5262 40.1419 16.4381 40.0762 16.4381 39.8794V16.3931L16.4362 16.3837Z" fill="#31C5F0"/>
</svg>
