<svg width="60" height="60" viewBox="0 0 60 60" fill="none" xmlns="http://www.w3.org/2000/svg">
<path d="M14.3887 27.165C13.8071 26.5834 13.0661 26.1874 12.2594 26.027C11.4527 25.8666 10.6165 25.949 9.85665 26.2638C9.09678 26.5786 8.44731 27.1116 7.99038 27.7955C7.53344 28.4794 7.28955 29.2834 7.28955 30.1059C7.28955 30.9284 7.53344 31.7324 7.99038 32.4163C8.44731 33.1002 9.09678 33.6332 9.85665 33.948C10.6165 34.2628 11.4527 34.3452 12.2594 34.1848C13.0661 34.0244 13.8071 33.6284 14.3887 33.0468H45.6112C46.1929 33.6284 46.9339 34.0244 47.7406 34.1848C48.5473 34.3452 49.3834 34.2628 50.1433 33.948C50.9032 33.6332 51.5526 33.1002 52.0096 32.4163C52.4665 31.7324 52.7104 30.9284 52.7104 30.1059C52.7104 29.2834 52.4665 28.4794 52.0096 27.7955C51.5526 27.1116 50.9032 26.5786 50.1433 26.2638C49.3834 25.949 48.5473 25.8666 47.7406 26.027C46.9339 26.1874 46.1929 26.5834 45.6112 27.165H14.3887Z" fill="#FFB13B" stroke="black" stroke-width="6.99375"/>
<path d="M21.0411 16.9875C21.0411 16.1653 20.7974 15.3615 20.3408 14.6778C19.8841 13.994 19.2351 13.461 18.4756 13.146C17.7161 12.831 16.8803 12.7482 16.0738 12.9081C15.2673 13.068 14.5263 13.4633 13.9444 14.0442C13.3624 14.625 12.9658 15.3653 12.8045 16.1716C12.6431 16.9778 12.7244 17.8137 13.0381 18.5738C13.3517 19.3338 13.8835 19.9838 14.5665 20.4417C15.2494 20.8996 16.0527 21.1447 16.8749 21.1462L38.9586 43.2225C38.9586 44.0447 39.2024 44.8484 39.659 45.5322C40.1156 46.2159 40.7647 46.749 41.5242 47.0639C42.2836 47.3789 43.1194 47.4617 43.926 47.3019C44.7325 47.142 45.4735 46.7467 46.0554 46.1658C46.6373 45.5849 47.034 44.8446 47.1953 44.0384C47.3566 43.2322 47.2753 42.3962 46.9617 41.6362C46.6481 40.8761 46.1162 40.2261 45.4333 39.7682C44.7504 39.3104 43.9471 39.0652 43.1249 39.0637L21.0411 16.9875Z" fill="#FFB13B" stroke="black" stroke-width="6.99375"/>
<path d="M32.94 14.4937C33.5216 13.9121 33.9176 13.171 34.078 12.3643C34.2384 11.5576 34.156 10.7215 33.8412 9.96163C33.5264 9.20176 32.9934 8.55229 32.3095 8.09536C31.6256 7.63842 30.8216 7.39453 29.9991 7.39453C29.1766 7.39453 28.3726 7.63842 27.6887 8.09536C27.0048 8.55229 26.4718 9.20176 26.157 9.96163C25.8422 10.7215 25.7598 11.5576 25.9202 12.3643C26.0806 13.171 26.4766 13.9121 27.0581 14.4937V45.7162C26.4766 46.2978 26.0806 47.0389 25.9202 47.8456C25.7598 48.6523 25.8422 49.4884 26.157 50.2483C26.4718 51.0081 27.0048 51.6576 27.6887 52.1146C28.3726 52.5715 29.1766 52.8154 29.9991 52.8154C30.8216 52.8154 31.6256 52.5715 32.3095 52.1146C32.9934 51.6576 33.5264 51.0081 33.8412 50.2483C34.156 49.4884 34.2384 48.6523 34.078 47.8456C33.9176 47.0389 33.5216 46.2978 32.94 45.7162V14.4937Z" fill="#FFB13B" stroke="black" stroke-width="6.99375"/>
<path d="M43.1251 21.1462C43.9473 21.1447 44.7506 20.8996 45.4335 20.4417C46.1164 19.9838 46.6483 19.3338 46.9619 18.5738C47.2755 17.8137 47.3568 16.9778 47.1955 16.1716C47.0342 15.3653 46.6375 14.625 46.0556 14.0442C45.4737 13.4633 44.7326 13.068 43.9261 12.9081C43.1196 12.7482 42.2838 12.831 41.5243 13.146C40.7649 13.461 40.1158 13.994 39.6592 14.6778C39.2025 15.3615 38.9588 16.1653 38.9588 16.9875L16.8751 39.0637C16.0525 39.0637 15.2485 39.3076 14.5646 39.7646C13.8807 40.2216 13.3476 40.8711 13.0329 41.631C12.7181 42.3909 12.6358 43.2271 12.7962 44.0338C12.9567 44.8405 13.3528 45.5815 13.9344 46.1632C14.516 46.7448 15.257 47.1409 16.0637 47.3013C16.8704 47.4618 17.7066 47.3794 18.4665 47.0647C19.2265 46.7499 19.876 46.2169 20.3329 45.533C20.7899 44.8491 21.0338 44.045 21.0338 43.2225L43.1251 21.1462Z" fill="#FFB13B" stroke="black" stroke-width="6.99375"/>
<path d="M14.3887 27.165C13.8071 26.5834 13.0661 26.1874 12.2594 26.027C11.4527 25.8666 10.6165 25.949 9.85665 26.2638C9.09678 26.5786 8.44731 27.1116 7.99038 27.7955C7.53344 28.4794 7.28955 29.2834 7.28955 30.1059C7.28955 30.9284 7.53344 31.7324 7.99038 32.4163C8.44731 33.1002 9.09678 33.6332 9.85665 33.948C10.6165 34.2628 11.4527 34.3452 12.2594 34.1848C13.0661 34.0244 13.8071 33.6284 14.3887 33.0468H45.6112C46.1929 33.6284 46.9339 34.0244 47.7406 34.1848C48.5473 34.3452 49.3834 34.2628 50.1433 33.948C50.9032 33.6332 51.5526 33.1002 52.0096 32.4163C52.4665 31.7324 52.7104 30.9284 52.7104 30.1059C52.7104 29.2834 52.4665 28.4794 52.0096 27.7955C51.5526 27.1116 50.9032 26.5786 50.1433 26.2638C49.3834 25.949 48.5473 25.8666 47.7406 26.027C46.9339 26.1874 46.1929 26.5834 45.6112 27.165H14.3887Z" fill="#FFB13B"/>
<path d="M21.0411 16.9875C21.0411 16.1653 20.7974 15.3615 20.3408 14.6778C19.8841 13.994 19.2351 13.461 18.4756 13.146C17.7161 12.831 16.8803 12.7482 16.0738 12.9081C15.2673 13.068 14.5263 13.4633 13.9444 14.0442C13.3624 14.625 12.9658 15.3653 12.8045 16.1716C12.6431 16.9778 12.7244 17.8137 13.0381 18.5738C13.3517 19.3338 13.8835 19.9838 14.5665 20.4417C15.2494 20.8996 16.0527 21.1447 16.8749 21.1462L38.9586 43.2225C38.9586 44.0447 39.2024 44.8484 39.659 45.5322C40.1156 46.2159 40.7647 46.749 41.5242 47.0639C42.2836 47.3789 43.1194 47.4617 43.926 47.3019C44.7325 47.142 45.4735 46.7467 46.0554 46.1658C46.6373 45.5849 47.034 44.8446 47.1953 44.0384C47.3566 43.2322 47.2753 42.3962 46.9617 41.6362C46.6481 40.8761 46.1162 40.2261 45.4333 39.7682C44.7504 39.3104 43.9471 39.0652 43.1249 39.0637L21.0411 16.9875Z" fill="#FFB13B"/>
<path d="M32.94 14.4937C33.5216 13.9121 33.9176 13.171 34.078 12.3643C34.2384 11.5576 34.156 10.7215 33.8412 9.96163C33.5264 9.20176 32.9934 8.55229 32.3095 8.09536C31.6256 7.63842 30.8216 7.39453 29.9991 7.39453C29.1766 7.39453 28.3726 7.63842 27.6887 8.09536C27.0048 8.55229 26.4718 9.20176 26.157 9.96163C25.8422 10.7215 25.7598 11.5576 25.9202 12.3643C26.0806 13.171 26.4766 13.9121 27.0581 14.4937V45.7162C26.4766 46.2978 26.0806 47.0389 25.9202 47.8456C25.7598 48.6523 25.8422 49.4884 26.157 50.2483C26.4718 51.0081 27.0048 51.6576 27.6887 52.1146C28.3726 52.5715 29.1766 52.8154 29.9991 52.8154C30.8216 52.8154 31.6256 52.5715 32.3095 52.1146C32.9934 51.6576 33.5264 51.0081 33.8412 50.2483C34.156 49.4884 34.2384 48.6523 34.078 47.8456C33.9176 47.0389 33.5216 46.2978 32.94 45.7162V14.4937Z" fill="#FFB13B"/>
<path d="M43.1251 21.1462C43.9473 21.1447 44.7506 20.8996 45.4335 20.4417C46.1164 19.9838 46.6483 19.3338 46.9619 18.5738C47.2755 17.8137 47.3568 16.9778 47.1955 16.1716C47.0342 15.3653 46.6375 14.625 46.0556 14.0442C45.4737 13.4633 44.7326 13.068 43.9261 12.9081C43.1196 12.7482 42.2838 12.831 41.5243 13.146C40.7649 13.461 40.1158 13.994 39.6592 14.6778C39.2025 15.3615 38.9588 16.1653 38.9588 16.9875L16.8751 39.0637C16.0525 39.0637 15.2485 39.3076 14.5646 39.7646C13.8807 40.2216 13.3476 40.8711 13.0329 41.631C12.7181 42.3909 12.6358 43.2271 12.7962 44.0338C12.9567 44.8405 13.3528 45.5815 13.9344 46.1632C14.516 46.7448 15.257 47.1409 16.0637 47.3013C16.8704 47.4618 17.7066 47.3794 18.4665 47.0647C19.2265 46.7499 19.876 46.2169 20.3329 45.533C20.7899 44.8491 21.0338 44.045 21.0338 43.2225L43.1251 21.1462Z" fill="#FFB13B"/>
<path d="M3.75022 30.105H56.2502V48.6562C56.2683 49.6722 56.0814 50.6814 55.7009 51.6236C55.3204 52.5658 54.754 53.4217 54.0355 54.1403C53.317 54.8588 52.4611 55.4252 51.5189 55.8057C50.5767 56.1862 49.5674 56.373 48.5515 56.355H11.449C10.433 56.373 9.42378 56.1862 8.48157 55.8057C7.53936 55.4252 6.68346 54.8588 5.96494 54.1403C5.24642 53.4217 4.68001 52.5658 4.2995 51.6236C3.91898 50.6814 3.73218 49.6722 3.75022 48.6562V30.105Z" fill="black"/>
<path d="M11.6252 43.2094C10.8371 42.4172 10.2563 41.443 9.93411 40.3731C9.61193 39.3031 9.55829 38.1702 9.77794 37.0746C9.99759 35.9789 10.4838 34.9543 11.1935 34.0912C11.9032 33.2281 12.8147 32.5531 13.8472 32.1259C14.8798 31.6987 16.0017 31.5325 17.1138 31.6419C18.2258 31.7513 19.2938 32.133 20.2233 32.7532C21.1528 33.3734 21.9153 34.2131 22.4432 35.1979C22.9711 36.1828 23.2483 37.2826 23.2502 38.4H19.2565C19.2535 37.9393 19.1373 37.4864 18.9183 37.0812C18.6993 36.6759 18.384 36.3306 18.0003 36.0757C17.6166 35.8208 17.1761 35.664 16.7176 35.6192C16.2591 35.5744 15.7966 35.6429 15.3708 35.8187C14.945 35.9945 14.5688 36.2722 14.2755 36.6274C13.9821 36.9826 13.7805 37.4044 13.6884 37.8558C13.5962 38.3072 13.6164 38.7743 13.747 39.2161C13.8777 39.6578 14.1149 40.0607 14.4377 40.3894C14.9761 40.9022 15.6857 41.1969 16.429 41.2162C18.2151 41.3034 19.9157 42.0079 21.2402 43.2094C22.031 44.0005 22.6145 44.9745 22.939 46.045C23.2634 47.1155 23.3189 48.2494 23.1005 49.3465C22.8821 50.4436 22.3966 51.4698 21.6868 52.3344C20.9771 53.199 20.0651 53.8753 19.0316 54.3032C17.9981 54.7312 16.8751 54.8977 15.7619 54.788C14.6487 54.6783 13.5797 54.2958 12.6496 53.6743C11.7196 53.0529 10.9571 52.2116 10.4298 51.2251C9.90245 50.2386 9.62654 49.1373 9.62646 48.0187H13.6202C13.6217 48.4803 13.7367 48.9344 13.9551 49.341C14.1735 49.7475 14.4887 50.0941 14.8727 50.3501C15.2568 50.6061 15.6979 50.7637 16.1572 50.8089C16.6165 50.8541 17.0799 50.7856 17.5065 50.6093C17.9331 50.4331 18.3097 50.1546 18.6033 49.7984C18.8968 49.4422 19.0981 49.0193 19.1895 48.5669C19.2809 48.1145 19.2596 47.6465 19.1274 47.2043C18.9952 46.7621 18.7562 46.3593 18.4315 46.0312C17.8653 45.5619 17.1706 45.2743 16.4383 45.2062C14.6624 45.0696 12.9763 44.3701 11.6252 43.2094ZM36.8458 31.5975L32.0346 54.825H28.0502L23.2502 31.5975H27.2252L30.0377 45.2006L32.8502 31.5975H36.8458ZM43.6502 41.2181H50.4527V48.0206C50.4527 49.825 49.7359 51.5555 48.46 52.8314C47.1841 54.1073 45.4537 54.8241 43.6493 54.8241C41.8449 54.8241 40.1144 54.1073 38.8385 52.8314C37.5626 51.5555 36.8458 49.825 36.8458 48.0206V38.4C36.8458 36.5956 37.5626 34.8651 38.8385 33.5892C40.1144 32.3133 41.8449 31.5966 43.6493 31.5966C45.4537 31.5966 47.1841 32.3133 48.46 33.5892C49.7359 34.8651 50.4527 36.5956 50.4527 38.4H46.4683C46.4683 37.6528 46.1715 36.9363 45.6432 36.4079C45.1149 35.8796 44.3983 35.5828 43.6512 35.5828C42.904 35.5828 42.1874 35.8796 41.6591 36.4079C41.1308 36.9363 40.834 37.6528 40.834 38.4V48.0187C40.834 48.7659 41.1308 49.4825 41.6591 50.0108C42.1874 50.5391 42.904 50.8359 43.6512 50.8359C44.3983 50.8359 45.1149 50.5391 45.6432 50.0108C46.1715 49.4825 46.4683 48.7659 46.4683 48.0187V45.2062H43.6558V41.2181H43.6502Z" fill="white"/>
</svg>
