<svg width="60" height="60" viewBox="0 0 60 60" fill="none" xmlns="http://www.w3.org/2000/svg">
<path d="M53.79 3.75H6.21C4.85138 3.75 3.75 4.85138 3.75 6.21V53.79C3.75 55.1486 4.85138 56.25 6.21 56.25H53.79C55.1486 56.25 56.25 55.1486 56.25 53.79V6.21C56.25 4.85138 55.1486 3.75 53.79 3.75Z" fill="#3178C6"/>
<path fill-rule="evenodd" clip-rule="evenodd" d="M34.2094 44.5481V50.3006C35.2546 50.8165 36.3685 51.1796 37.5169 51.3788C38.844 51.6238 40.1911 51.7443 41.5407 51.7388C42.856 51.745 44.1682 51.6124 45.4557 51.3431C46.6116 51.1096 47.7144 50.6646 48.7088 50.0306C49.6319 49.4347 50.3928 48.6191 50.9232 47.6569C51.8731 45.6644 51.9984 43.3775 51.2719 41.2931C50.9653 40.5137 50.5086 39.8021 49.9275 39.1988C49.3039 38.5572 48.5954 38.004 47.8219 37.5544C46.9314 37.0328 46.0061 36.573 45.0525 36.1781C44.3025 35.8669 43.6275 35.5644 43.0275 35.2706C42.4946 35.0155 41.9846 34.715 41.5032 34.3725C41.1261 34.1081 40.7986 33.7794 40.5357 33.4013C40.3085 33.0579 40.1902 32.6541 40.1963 32.2425C40.1913 31.8637 40.2968 31.4916 40.5 31.1719C40.7207 30.8372 41.0151 30.5576 41.3607 30.3544C41.783 30.1057 42.2427 29.9265 42.7219 29.8238C43.3103 29.693 43.9117 29.6301 44.5144 29.6363C45.0213 29.638 45.5275 29.6743 46.0294 29.745C46.5715 29.8183 47.1078 29.9292 47.6344 30.0769C48.1701 30.2254 48.694 30.4134 49.2019 30.6394C49.6947 30.8591 50.1661 31.1239 50.61 31.4306V26.0625C49.6859 25.7129 48.7275 25.4615 47.7507 25.3125C46.5711 25.1409 45.3801 25.06 44.1882 25.0706C42.8853 25.0636 41.5861 25.2115 40.3182 25.5113C39.1721 25.7731 38.0823 26.2387 37.1007 26.8856C36.1888 27.4931 35.4359 28.3103 34.905 29.2688C34.3425 30.3331 34.0641 31.5247 34.0969 32.7281C34.0554 34.3196 34.5796 35.8742 35.5763 37.1156C36.7991 38.492 38.3411 39.5473 40.0669 40.1888C40.8544 40.5138 41.5888 40.8319 42.27 41.1431C42.8847 41.4166 43.4755 41.7409 44.0363 42.1125C44.4886 42.4067 44.8859 42.778 45.21 43.2094C45.4951 43.6007 45.6463 44.0734 45.6413 44.5575C45.6439 44.9202 45.5507 45.2773 45.3713 45.5925C45.1719 45.9313 44.8917 46.2154 44.5557 46.4194C44.1352 46.6757 43.6753 46.8607 43.1944 46.9669C42.5681 47.1069 41.9274 47.173 41.2857 47.1638C40.0262 47.1614 38.7769 46.9394 37.5938 46.5075C36.3578 46.0615 35.2116 45.3979 34.2094 44.5481ZM24.5457 30.2269H32.0457V25.4888H11.1338V30.2269H18.6V51.3281H24.5457V30.2269Z" fill="white"/>
</svg>
