<svg width="53" height="60" viewBox="0 0 53 60" fill="none" xmlns="http://www.w3.org/2000/svg">
<g clip-path="url(#clip0_32_298)">
<path d="M26.4852 0.0098877L52.968 14.9902V44.9606L26.4852 59.941L0.00244141 44.9606V14.9902L26.4852 0.0098877Z" fill="white"/>
<path d="M48.2409 43.9214L27.3646 55.7435V46.5496L40.3761 39.3844L48.2409 43.9214ZM49.6699 42.6322V17.9284L42.035 22.3353V38.2249L49.6699 42.6322ZM4.64925 43.9212L25.5257 55.7337V46.5397L12.5142 39.3844L4.64925 43.9214V43.9212ZM3.22021 42.6322V17.9284L10.8553 22.3353V38.2249L3.22021 42.6322ZM4.10987 16.3295L25.5257 4.21713V13.1116L11.8048 20.6565L11.6947 20.7165L4.10987 16.3295ZM48.7706 16.3295L27.3646 4.21692V13.1114L41.0757 20.6662L41.1855 20.7262L48.7706 16.3291V16.3295Z" fill="#8ED6FB"/>
<path d="M25.5256 44.4511L12.6938 37.3856V23.4048L25.5256 30.81V44.4511ZM27.3645 44.4511L40.1962 37.3958V23.4048L27.3645 30.81V44.4511ZM13.5533 21.7858L26.445 14.7004L39.3264 21.7858L26.445 29.2211L13.5533 21.7858Z" fill="#1C78C0"/>
</g>
<defs>
<clipPath id="clip0_32_298">
<rect width="52.97" height="60" fill="white"/>
</clipPath>
</defs>
</svg>
